<svg width="240" height="228" viewBox="0 0 240 228" fill="none" xmlns="http://www.w3.org/2000/svg">
<mask id="path-1-inside-1_510_19" fill="white">
<path d="M120 0.0078125L150.365 84.214L239.833 87.0717L169.131 141.972L194.061 227.944L120 177.668L45.9387 227.944L70.8682 141.972L0.166504 87.0717L89.6347 84.214L120 0.0078125Z"/>
</mask>
<path d="M120 0.0078125L134.11 -5.08051L120 -44.211L105.889 -5.08053L120 0.0078125ZM150.365 84.214L136.254 89.3023L139.708 98.8812L149.886 99.2063L150.365 84.214ZM239.833 87.0717L249.033 98.9193L281.888 73.4073L240.312 72.0793L239.833 87.0717ZM169.131 141.972L159.932 130.124L151.889 136.369L154.725 146.149L169.131 141.972ZM194.061 227.944L185.636 240.354L220.052 263.718L208.467 223.766L194.061 227.944ZM120 177.668L128.425 165.257L120 159.538L111.575 165.257L120 177.668ZM45.9387 227.944L31.5321 223.766L19.9474 263.718L54.3635 240.354L45.9387 227.944ZM70.8682 141.972L85.2747 146.149L88.1106 136.369L80.0679 130.124L70.8682 141.972ZM0.166504 87.0717L-0.312365 72.0793L-41.8882 73.4073L-9.03318 98.9193L0.166504 87.0717ZM89.6347 84.214L90.1136 99.2063L100.291 98.8812L103.745 89.3023L89.6347 84.214ZM105.889 5.09613L136.254 89.3023L164.475 79.1256L134.11 -5.08051L105.889 5.09613ZM149.886 99.2063L239.354 102.064L240.312 72.0793L150.844 69.2216L149.886 99.2063ZM230.633 75.2241L159.932 130.124L178.331 153.819L249.033 98.9193L230.633 75.2241ZM154.725 146.149L179.654 232.121L208.467 223.766L183.538 137.794L154.725 146.149ZM202.486 215.533L128.425 165.257L111.575 190.078L185.636 240.354L202.486 215.533ZM111.575 165.257L37.5138 215.533L54.3635 240.354L128.425 190.078L111.575 165.257ZM60.3452 232.121L85.2747 146.149L56.4616 137.794L31.5321 223.766L60.3452 232.121ZM80.0679 130.124L9.36619 75.2241L-9.03318 98.9193L61.6685 153.819L80.0679 130.124ZM0.645373 102.064L90.1136 99.2063L89.1559 69.2216L-0.312365 72.0793L0.645373 102.064ZM103.745 89.3023L134.11 5.09615L105.889 -5.08053L75.5241 79.1256L103.745 89.3023Z" fill="#CEA100" mask="url(#path-1-inside-1_510_19)"/>
<path d="M161.818 144.246L180.899 210.049L124.046 171.455L119.833 168.595L115.621 171.455L58.7678 210.049L77.9049 144.053L79.3229 139.163L75.3015 136.04L21.0274 93.896L89.7077 91.7023L94.7964 91.5398L96.5235 86.7503L119.833 22.1094L143.072 86.5533L151.314 114.146L151.363 114.311L151.419 114.473L161.818 144.246Z" fill="#CEA100" stroke="#CEA100" stroke-width="15"/>
</svg>
