<svg width="240" height="228" viewBox="0 0 240 228" fill="none" xmlns="http://www.w3.org/2000/svg">
<mask id="path-1-inside-1_510_10" fill="white">
<path d="M119.833 0L150.198 84.2061L239.666 87.0638L168.965 141.964L193.894 227.936L119.833 177.66L45.7722 227.936L70.7017 141.964L0 87.0638L89.4682 84.2061L119.833 0Z"/>
</mask>
<path d="M119.833 0L133.944 -5.08832L119.833 -44.2188L105.723 -5.08834L119.833 0ZM150.198 84.2061L136.088 89.2945L139.542 98.8734L149.719 99.1985L150.198 84.2061ZM239.666 87.0638L248.866 98.9114L281.721 73.3995L240.145 72.0715L239.666 87.0638ZM168.965 141.964L159.765 130.116L151.722 136.361L154.558 146.141L168.965 141.964ZM193.894 227.936L185.469 240.347L219.886 263.71L208.301 223.759L193.894 227.936ZM119.833 177.66L128.258 165.249L119.833 159.53L111.408 165.249L119.833 177.66ZM45.7722 227.936L31.3656 223.759L19.7809 263.71L54.197 240.347L45.7722 227.936ZM70.7017 141.964L85.1082 146.141L87.9441 136.361L79.9013 130.116L70.7017 141.964ZM0 87.0638L-0.478869 72.0715L-42.0547 73.3995L-9.19969 98.9114L0 87.0638ZM89.4682 84.2061L89.9471 99.1985L100.125 98.8734L103.579 89.2945L89.4682 84.2061ZM105.723 5.08832L136.088 89.2945L164.309 79.1178L133.944 -5.08832L105.723 5.08832ZM149.719 99.1985L239.188 102.056L240.145 72.0715L150.677 69.2138L149.719 99.1985ZM230.467 75.2162L159.765 130.116L178.165 153.811L248.866 98.9114L230.467 75.2162ZM154.558 146.141L179.488 232.114L208.301 223.759L183.371 137.786L154.558 146.141ZM202.319 215.526L128.258 165.249L111.408 190.071L185.469 240.347L202.319 215.526ZM111.408 165.249L37.3473 215.526L54.197 240.347L128.258 190.071L111.408 165.249ZM60.1787 232.114L85.1082 146.141L56.2951 137.786L31.3656 223.759L60.1787 232.114ZM79.9013 130.116L9.19969 75.2162L-9.19969 98.9114L61.502 153.811L79.9013 130.116ZM0.478869 102.056L89.9471 99.1985L88.9894 69.2138L-0.478869 72.0715L0.478869 102.056ZM103.579 89.2945L133.944 5.08834L105.723 -5.08834L75.3576 79.1178L103.579 89.2945Z" fill="#CEA100" mask="url(#path-1-inside-1_510_10)"/>
</svg>
