<svg width="1926" height="670" viewBox="0 0 1926 670" fill="none" xmlns="http://www.w3.org/2000/svg">
<rect x="0.748047" y="569" width="100" height="100" ry="30" rx="80"  fill="#014525"/>
<rect x="852.535" y="569" width="100" height="100" ry="30" rx="80"  fill="#014525"/>
<rect x="0.748047" y="460" width="100" height="100" ry="30" rx="80"  fill="#014525"/>
<rect x="0.748047" y="242" width="100" height="100" ry="30" rx="80"  fill="#014525"/>
<rect x="852.535" y="460" width="100" height="100" ry="30" rx="80"  fill="#014525"/>
<rect x="852.535" y="242" width="100" height="100" ry="30" rx="80"  fill="#014525"/>
<rect x="0.748047" y="351" width="100" height="100" ry="30" rx="80"  fill="#014525"/>
<rect x="852.535" y="351" width="100" height="100" ry="30" rx="80"  fill="#014525"/>
<rect x="122.432" y="569" width="100" height="100" ry="30" rx="80"  fill="#014525"/>
<rect x="974.22" y="569" width="100" height="100" ry="30" rx="80"  fill="#014525"/>
<rect x="122.432" y="460" width="100" height="100" ry="30" rx="80"  fill="#014525"/>
<rect x="122.432" y="242" width="100" height="100" ry="30" rx="80"  fill="#014525"/>
<rect x="974.22" y="460" width="100" height="100" ry="30" rx="80"  fill="#014525"/>
<rect x="974.22" y="242" width="100" height="100" ry="30" rx="80"  fill="#014525"/>
<rect x="122.432" y="351" width="100" height="100" ry="30" rx="80"  fill="#014525"/>
<rect x="974.22" y="351" width="100" height="100" ry="30" rx="80"  fill="#014525"/>
<rect x="244.116" y="569" width="100" height="100" ry="30" rx="80"  fill="#014525"/>
<rect x="1095.9" y="569" width="100" height="100" ry="30" rx="80"  fill="#014525"/>
<rect x="244.116" y="460" width="100" height="100" ry="30" rx="80"  fill="#014525"/>

<rect x="1095.9" y="460" width="100" height="100" ry="30" rx="80"  fill="#014525"/>
<rect x="1095.9" y="242" width="100" height="100" ry="30" rx="80"  fill="#014525"/>
<rect x="1095.75" y="133" width="100" height="100" ry="30" rx="80"  fill="#014525"/>
<rect x="1217.75" y="133" width="100" height="100" ry="30" rx="80"  fill="#014525"/>
<rect x="1703.75" y="133" width="100" height="100" ry="30" rx="80"  fill="#014525"/>
<rect x="244.116" y="351" width="100" height="100" ry="30" rx="80"  fill="#014525"/>
<rect x="1095.9" y="351" width="100" height="100" ry="30" rx="80"  fill="#014525"/>
<rect x="487.483" y="569" width="100" height="100" ry="30" rx="80"  fill="#014525"/>
<rect x="1339.27" y="569" width="100" height="100" ry="30" rx="80"  fill="#014525"/>
<rect x="487.483" y="460" width="100" height="100" ry="30" rx="80"  fill="#014525"/>
<rect x="487.483" y="242" width="100" height="100" ry="30" rx="80"  fill="#014525"/>
<rect x="1339.27" y="460" width="100" height="100" ry="30" rx="80"  fill="#014525"/>
<rect x="1339.27" y="242" width="100" height="100" ry="30" rx="80"  fill="#014525"/>
<rect x="487.483" y="351" width="100" height="100" ry="30" rx="80"  fill="#014525"/>
<rect x="1339.27" y="351" width="100" height="100" ry="30" rx="80"  fill="#014525"/>
<rect x="365.8" y="569" width="100" height="100" ry="30" rx="80"  fill="#014525"/>
<rect x="1217.59" y="569" width="100" height="100" ry="30" rx="80"  fill="#014525"/>
<rect x="365.8" y="460" width="100" height="100" ry="30" rx="80"  fill="#014525"/>
<rect x="365.8" y="242" width="100" height="100" ry="30" rx="80"  fill="#014525"/>
<rect x="1217.59" y="460" width="100" height="100" ry="30" rx="80"  fill="#014525"/>
<rect x="1217.59" y="242" width="100" height="100" ry="30" rx="80"  fill="#014525"/>
<rect x="365.8" y="351" width="100" height="100" ry="30" rx="80"  fill="#014525"/>
<rect x="1217.59" y="351" width="100" height="100" ry="30" rx="80"  fill="#014525"/>
<rect x="730.852" y="570" width="100" height="100" ry="30" rx="80"  fill="#014525"/>
<rect x="1582.64" y="569" width="100" height="100" ry="30" rx="80"  fill="#014525"/>
<rect x="1704.32" y="570" width="100" height="100" ry="30" rx="80"  fill="#014525"/>
<rect x="1826.01" y="570" width="100" height="100" ry="30" rx="80"  fill="#014525"/>
<rect x="730.852" y="460" width="100" height="100" ry="30" rx="80"  fill="#014525"/>
<rect x="730.852" y="242" width="100" height="100" ry="30" rx="80"  fill="#014525"/>
<rect x="1582.64" y="460" width="100" height="100" ry="30" rx="80"  fill="#014525"/>
<rect x="1582.64" y="242" width="100" height="100" ry="30" rx="80"  fill="#014525"/>
<rect x="1704.32" y="460" width="100" height="100" ry="30" rx="80"  fill="#014525"/>
<rect x="1704.32" y="242" width="100" height="100" ry="30" rx="80"  fill="#014525"/>
<rect x="1826.01" y="460" width="100" height="100" ry="30" rx="80"  fill="#014525"/>
<rect x="1826.01" y="242" width="100" height="100" ry="30" rx="80"  fill="#014525"/>
<rect x="730.852" y="351" width="100" height="100" ry="30" rx="80"  fill="#014525"/>
<rect x="1582.64" y="351" width="100" height="100" ry="30" rx="80"  fill="#014525"/>
<rect x="1704.32" y="351" width="100" height="100" ry="30" rx="80"  fill="#014525"/>
<rect x="1826.01" y="351" width="100" height="100" ry="30" rx="80"  fill="#014525"/>
<rect x="609.168" y="569" width="100" height="100" ry="30" rx="80"  fill="#014525"/>
<rect x="1460.96" y="569" width="100" height="100" ry="30" rx="80"  fill="#014525"/>
<rect x="609.168" y="460" width="100" height="100" ry="30" rx="80"  fill="#014525"/>

<rect x="1460.96" y="460" width="100" height="100" ry="30" rx="80"  fill="#014525"/>
<rect x="1460.96" y="242" width="100" height="100" ry="30" rx="80"  fill="#014525"/>
<rect x="609.168" y="351" width="100" height="100" ry="30" rx="80"  fill="#014525"/>
<rect x="1460.96" y="351" width="100" height="100" ry="30" rx="80"  fill="#014525"/>
<path d="M521.926 224.241C521.926 224.241 519.047 225.201 518.183 225.105L519.047 230.288L521.35 235.472L525.381 240.656L521.35 229.137L521.926 224.241Z" fill="#014525"/>
<path d="M561.46 147.377C560.078 149.22 552.439 148.72 548.792 148.241C545.72 147.568 539.866 147.952 541.018 154.863C542.457 163.503 553.974 179.341 551.383 196.62C548.791 213.899 527.485 221.962 526.046 222.826C524.894 223.517 526.526 234.825 527.485 240.392H532.956C533.647 240.392 533.244 241.352 532.956 241.832L529.789 244.136L526.046 245V241.832L522.591 243.272L518.272 241.832C518.464 241.256 518.905 239.701 519.136 238.089C519.366 236.476 516.352 228.969 514.817 225.418C514.817 225.418 496.966 228.009 482.282 225.418C479.403 225.418 475.084 230.025 469.901 230.601C465.755 231.062 462.991 227.337 462.128 225.418C457.905 225.322 448.653 225.187 445.428 225.418C442.204 225.648 442.549 223.21 443.125 221.962L454.642 219.37C454.642 219.37 466.063 213.131 472.205 210.443L475.084 207.851C483.05 199.116 501.63 181.415 512.226 180.493C525.47 179.341 525.47 166.67 526.046 164.655C526.622 162.639 517.984 145.649 529.789 140.753C541.594 135.858 543.609 142.769 550.231 142.769C556.853 142.769 563.188 145.073 561.46 147.377Z" fill="#014525"/>
<path d="M539.489 144.184C539.489 144.502 538.587 144.76 537.474 144.76C536.361 144.76 535.458 144.502 535.458 144.184C535.458 143.865 536.361 143.608 537.474 143.608C538.587 143.608 539.489 143.865 539.489 144.184Z" fill="#014525"/>
<path d="M519.335 178.217C524.709 177.449 537.175 177.347 540.065 185.416C541.316 188.91 537.465 192.272 540.065 194.92C542.441 197.339 546.918 192.901 548.703 195.784C549.887 197.696 548.703 201.543 548.703 201.543L547.551 206.386M471.828 210.994H477.298C475.187 214.45 479.314 220.209 479.314 220.209C479.122 221.169 480.696 223.895 481.617 224.817L462.039 225.393M518.183 225.105C519.047 225.201 521.926 224.241 521.926 224.241L521.35 229.137L525.381 240.656L521.35 235.472L519.047 230.288L518.183 225.105ZM548.792 148.241C552.439 148.72 560.078 149.22 561.46 147.377C563.188 145.073 556.853 142.769 550.231 142.769C543.609 142.769 541.594 135.858 529.789 140.753C517.984 145.649 526.622 162.639 526.046 164.655C525.47 166.67 525.47 179.341 512.226 180.493C501.63 181.415 483.05 199.116 475.084 207.851L472.205 210.443C466.063 213.131 454.642 219.37 454.642 219.37L443.125 221.962C442.549 223.21 442.204 225.648 445.428 225.418C448.653 225.187 457.905 225.322 462.128 225.418C462.991 227.337 465.755 231.062 469.901 230.601C475.084 230.025 479.403 225.418 482.282 225.418C496.966 228.009 514.817 225.418 514.817 225.418C516.352 228.969 519.366 236.476 519.136 238.089C518.905 239.701 518.464 241.256 518.272 241.832L522.591 243.272L526.046 241.832V245L529.789 244.136L532.956 241.832C533.244 241.352 533.647 240.392 532.956 240.392H527.485C526.526 234.825 524.894 223.517 526.046 222.826C527.485 221.962 548.791 213.899 551.383 196.62C553.974 179.341 542.457 163.503 541.018 154.863C539.866 147.952 545.72 147.568 548.792 148.241ZM539.489 144.184C539.489 144.502 538.587 144.76 537.474 144.76C536.361 144.76 535.458 144.502 535.458 144.184C535.458 143.865 536.361 143.608 537.474 143.608C538.587 143.608 539.489 143.865 539.489 144.184Z" stroke="#FDFDFD" stroke-width="2"/>
<path d="M1115.53 19.2011C1113.78 19.7319 1111.16 20.8864 1111.16 20.8864C1110.15 20.5491 1108.6 19.0656 1110.48 15.8298C1112.37 12.5941 1117.78 11.111 1120.25 10.774L1122.27 8.75232C1122.27 8.75232 1127.32 1.63867 1137.08 1C1158.97 0.998683 1151.56 27.2905 1151.56 27.2905C1151.56 27.2905 1152.64 37.8067 1152.91 39.4245C1153.18 41.0424 1154.25 43.9976 1162.34 55.2649C1170.42 66.5323 1168.73 103.46 1162 108.856C1155.26 114.251 1155.21 113.913 1151.56 117.959C1149.8 119.913 1150.14 123.542 1147.52 123.352L1147.86 131.102L1149.88 129.416L1154.59 129.079L1158.63 129.753L1149.2 135.146H1144.83L1141.8 130.427L1137.42 126.046C1137.08 128.319 1139.78 131.439 1139.78 131.439C1139.78 131.439 1141.12 135.052 1139.78 136.494C1137.96 138.442 1133.38 134.135 1133.38 134.135C1133.38 134.135 1131.41 129.606 1129 129.753C1128.17 129.804 1126.98 130.427 1126.98 130.427C1126.98 130.427 1122.65 134.65 1120.92 132.787C1119.92 131.708 1119.96 130.522 1120.25 129.079C1120.56 127.504 1122.39 127.301 1122.6 125.709C1122.77 124.506 1122.62 123.67 1121.93 122.675C1121.61 122.217 1121.29 122.085 1120.92 121.664C1119.65 120.209 1118.62 117.282 1118.62 117.282C1118.08 120.236 1117.89 123.352 1117.89 123.352C1117.89 123.352 1115.53 117.621 1108.8 103.803C1105.43 96.8921 1106.78 90.3176 1108.8 84.5902C1110.15 80.2059 1111.16 74.4785 1113.18 68.7485C1114.79 64.1646 1120.25 55.6007 1123.61 47.5139C1124.29 38.7478 1129.34 26.9508 1129 23.2458C1126.64 19.8726 1126.43 18.8146 1123.61 17.8529C1120.59 16.8187 1118.6 18.2739 1115.53 19.2011Z" fill="#014525"/>
<path d="M1133.68 10.7747C1133.68 11.7054 1132.78 11.4488 1131.66 11.4488C1130.55 11.4488 1129 12.1229 1129.64 10.7747C1129.64 9.84391 1130.55 9.08938 1131.66 9.08938C1132.78 9.08938 1133.68 9.84391 1133.68 10.7747Z" fill="#014525"/>
<path d="M1147.52 123.352C1145.48 123.204 1143.82 119.644 1143.82 119.644C1143.82 119.644 1145.27 112.276 1142.47 112.566C1141.24 112.694 1140.99 114.015 1139.78 114.251C1137.98 114.6 1136.74 113.812 1135.4 112.566C1134.02 111.285 1135.15 108.836 1133.38 108.184C1132.52 107.866 1131.89 107.866 1131.02 108.184C1129.26 108.836 1130.22 111.131 1129 112.566C1127.44 114.406 1123.61 116.386 1123.61 115.6C1123.61 114.813 1122.89 113.525 1121.93 112.566C1120.26 110.887 1119.22 113.983 1118.62 117.282M1147.52 123.352C1150.14 123.542 1149.8 119.913 1151.56 117.959C1155.21 113.913 1155.26 114.251 1162 108.856C1168.73 103.46 1170.42 66.5323 1162.34 55.2649C1154.25 43.9976 1153.18 41.0424 1152.91 39.4245C1152.64 37.8067 1151.56 27.2905 1151.56 27.2905C1151.56 27.2905 1158.97 0.998683 1137.08 1C1127.32 1.63867 1122.27 8.75232 1122.27 8.75232L1120.25 10.774C1117.78 11.111 1112.37 12.5941 1110.48 15.8298C1108.6 19.0656 1110.15 20.5491 1111.16 20.8864C1111.16 20.8864 1113.78 19.7319 1115.53 19.2011C1118.6 18.2739 1120.59 16.8187 1123.61 17.8529C1126.43 18.8146 1126.64 19.8726 1129 23.2458C1129.34 26.9508 1124.29 38.7478 1123.61 47.5139C1120.25 55.6007 1114.79 64.1646 1113.18 68.7485C1111.16 74.4785 1110.15 80.2059 1108.8 84.5902C1106.78 90.3176 1105.43 96.8921 1108.8 103.803C1115.53 117.621 1117.89 123.352 1117.89 123.352C1117.89 123.352 1118.08 120.236 1118.62 117.282M1147.52 123.352L1147.86 131.102L1149.88 129.416L1154.59 129.079L1158.63 129.753L1149.2 135.146H1144.83L1141.8 130.427L1137.42 126.046M1118.62 117.282C1118.62 117.282 1119.65 120.209 1120.92 121.664C1121.29 122.085 1121.61 122.217 1121.93 122.675C1122.62 123.67 1122.77 124.506 1122.6 125.709C1122.39 127.301 1120.56 127.504 1120.25 129.079C1119.96 130.522 1119.92 131.708 1120.92 132.787C1122.65 134.65 1126.98 130.427 1126.98 130.427C1126.98 130.427 1128.17 129.804 1129 129.753C1131.41 129.606 1133.38 134.135 1133.38 134.135C1133.38 134.135 1137.96 138.442 1139.78 136.494C1141.12 135.052 1139.78 131.439 1139.78 131.439C1139.78 131.439 1137.08 128.319 1137.42 126.046M1137.42 126.046C1137.83 123.278 1142.81 121.327 1142.81 121.327L1143.82 120.316M1118.2 58.1042L1122.91 55.0707L1126.95 51.363C1145.13 37.8802 1152.43 51.6992 1154.9 52.7103C1157.37 53.7214 1163.92 57.1538 1165 60.6592M1126.61 130.43L1124.26 136.16L1131.66 136.497V134.138L1129.31 130.093M1133.68 10.7747C1133.68 11.7054 1132.78 11.4488 1131.66 11.4488C1130.55 11.4488 1129 12.1229 1129.64 10.7747C1129.64 9.84391 1130.55 9.08938 1131.66 9.08938C1132.78 9.08938 1133.68 9.84391 1133.68 10.7747Z" stroke="#FCFCFC" stroke-width="2"/>
</svg>
