<svg width="1690" height="926" viewBox="0 0 1690 926" fill="none" xmlns="http://www.w3.org/2000/svg">
<style>
#id1,#id5,#id6,#id10,#id17,#id22{
      animation: wave 15s linear 0s infinite normal forwards;
    }
    #id4,#id9,#id11,#id15,#id18,#id21{
      animation: wave 15s ease-in-out 0s infinite alternate-reverse backwards;
    }
    #id3,#id8,#id13,#id14,#id20{
      animation: wave 15s ease-in 0s infinite reverse forwards;
    }
    #id2,#id7,#id12,#id16,#id19{
      animation: wave 15s ease 0s infinite alternate backwards;
    }
    @keyframes wave {
      0% {
        transform: translateX(20px) translateY(10px);
      }
      20% {
        transform: translateX(10px) translateY(10px);
      }
      40% {
        transform: translateX(-10px) translateY(20px);
      }
      60% {
        transform: translateX(10px) translateY(-10px);
      }
      80% {
        transform: translateX(-20px) translateY(10px);
      }
      100% {
        transform: translateX(20px) translateY(10px);
      }
    }
</style>
<rect id="id1" x="1170" y="145.004" width="50" height="50" rx="25" stroke="#D9D9D9" stroke-width="4"/>
<rect id="id2" x="56" y="411.004" width="26" height="122" stroke="#D9D9D9" stroke-width="4"/>
<rect id="id3" x="1625" y="325.004" width="30" height="123" fill="#D9D9D9"/>
<path id="id4" d="M1382 549.004L1403 570.004L1436 603.004H1382V549.004Z" fill="#D9D9D9"/>
<path id="id5" d="M962 55.0039L941 76.0039L908 109.004H962V55.0039Z" fill="#D9D9D9"/>
<path id="id6" d="M808 500.004V452.832L790.414 470.418L760.828 500.004H808Z" stroke="#D9D9D9" stroke-width="4"/>
<path id="id7" d="M0 278.004L21 257.004L54 224.004H0V278.004Z" fill="#D9D9D9"/>
<path id="id8" d="M326 576.004V623.175L343.586 605.59L373.172 576.004H326Z" stroke="#D9D9D9" stroke-width="4"/>
<path id="id9" d="M54 843.004L33 822.004L0 789.004H54V843.004Z" fill="#D9D9D9"/>
<path id="id10" d="M1677 84.0039V131.175L1659.41 113.59L1629.83 84.0039H1677Z" stroke="#D9D9D9" stroke-width="4"/>
<rect id="id11" x="192" y="719.004" width="54" height="54" rx="27" fill="#D9D9D9"/>
<rect id="id12" x="1636" y="828.004" width="54" height="54" fill="#D9D9D9"/>
<rect id="id13" x="71.8284" y="55.1875" width="50" height="50" transform="rotate(-45 71.8284 55.1875)" stroke="#D9D9D9" stroke-width="4"/>
<rect id="id14" x="734" y="856.188" width="54" height="54" transform="rotate(-45 734 856.188)" fill="#D9D9D9"/>
<rect id="id15" x="261" y="20.0039" width="117" height="35" fill="#D9D9D9"/>
<rect id="id16" x="520" y="218.004" width="113" height="31" stroke="#D9D9D9" stroke-width="4"/>
<rect id="id17" x="1472.26" y="158.801" width="50" height="50" transform="rotate(2.82586 1472.26 158.801)" stroke="#D9D9D9" stroke-width="4"/>
<path id="id18" d="M1287.29 923.004L1327.22 846.004H1361.33L1324.74 923.004H1287.29Z" stroke="#D9D9D9" stroke-width="4"/>
<path id="id19" d="M1212 696.004H1250.5L1212 777.004H1170L1212 696.004Z" fill="#D9D9D9"/>
<path id="id20" d="M1300.18 24.8801L1330.15 0.707615L1351.04 87.9248L1318.35 114.295L1300.18 24.8801Z" fill="#D9D9D9"/>
<path id="id21" d="M546.646 794.385L463.607 766.017L454.355 702.621L536.726 730.762L546.646 794.385Z" fill="#D9D9D9"/>
<path id="id22" d="M1546.16 722.004L1518.31 669.004H1601.53L1628.73 722.004H1546.16Z" stroke="#D9D9D9" stroke-width="4"/>
</svg>
