<svg width="1326" height="225" viewBox="0 0 1326 225" fill="none" xmlns="http://www.w3.org/2000/svg">
<path d="M304.318 76.5455H319.659L372.429 203.25H373.707L426.477 76.5455H441.818V222H429.318V104.599H428.182L379.105 222H367.031L317.955 104.599H316.818V222H304.318V76.5455ZM508.331 224.486C501.75 224.486 495.736 223.207 490.291 220.651C484.846 218.046 480.514 214.306 477.294 209.429C474.074 204.505 472.464 198.539 472.464 191.531C472.464 186.134 473.482 181.588 475.518 177.895C477.554 174.202 480.443 171.171 484.183 168.804C487.924 166.437 492.351 164.566 497.464 163.193C502.578 161.82 508.213 160.755 514.368 159.997C520.476 159.24 525.637 158.577 529.851 158.009C534.112 157.44 537.356 156.541 539.581 155.31C541.806 154.079 542.919 152.09 542.919 149.344V146.787C542.919 139.353 540.694 133.506 536.243 129.244C531.839 124.936 525.495 122.781 517.209 122.781C509.349 122.781 502.933 124.509 497.962 127.966C493.037 131.422 489.581 135.494 487.592 140.182L475.589 135.849C478.052 129.884 481.461 125.125 485.817 121.574C490.173 117.975 495.05 115.395 500.447 113.832C505.845 112.223 511.314 111.418 516.854 111.418C521.02 111.418 525.353 111.962 529.851 113.051C534.396 114.14 538.61 116.034 542.493 118.733C546.375 121.384 549.524 125.101 551.939 129.884C554.354 134.618 555.561 140.632 555.561 147.923V222H542.919V204.741H542.138C540.623 207.961 538.374 211.086 535.391 214.116C532.408 217.147 528.667 219.633 524.169 221.574C519.671 223.515 514.392 224.486 508.331 224.486ZM510.036 212.909C516.759 212.909 522.583 211.418 527.507 208.435C532.431 205.452 536.219 201.498 538.871 196.574C541.57 191.602 542.919 186.134 542.919 180.168V164.401C541.972 165.3 540.386 166.105 538.161 166.815C535.982 167.526 533.449 168.165 530.561 168.733C527.72 169.254 524.879 169.704 522.038 170.082C519.197 170.461 516.641 170.793 514.368 171.077C508.213 171.834 502.957 173.018 498.601 174.628C494.245 176.238 490.907 178.463 488.587 181.304C486.267 184.098 485.107 187.696 485.107 192.099C485.107 198.728 487.474 203.866 492.209 207.511C496.944 211.11 502.886 212.909 510.036 212.909ZM589.19 222V112.909H601.477V129.67H602.401C604.579 124.178 608.366 119.751 613.764 116.389C619.209 112.98 625.365 111.276 632.23 111.276C633.272 111.276 634.432 111.299 635.71 111.347C636.989 111.394 638.054 111.441 638.906 111.489V124.344C638.338 124.249 637.344 124.107 635.923 123.918C634.503 123.728 632.964 123.634 631.307 123.634C625.625 123.634 620.559 124.841 616.108 127.256C611.705 129.623 608.224 132.914 605.668 137.128C603.111 141.342 601.832 146.148 601.832 151.545V222H589.19ZM710.284 112.909V123.918H658.224V112.909H710.284ZM674.489 86.7727H687.202V193.52C687.202 198.065 687.983 201.64 689.545 204.244C691.108 206.801 693.144 208.624 695.653 209.713C698.163 210.755 700.838 211.276 703.679 211.276C705.336 211.276 706.757 211.181 707.94 210.991C709.124 210.755 710.166 210.518 711.065 210.281L713.764 221.716C712.533 222.189 711.018 222.616 709.219 222.994C707.42 223.42 705.194 223.634 702.543 223.634C697.902 223.634 693.428 222.616 689.119 220.58C684.858 218.544 681.354 215.513 678.608 211.489C675.862 207.464 674.489 202.469 674.489 196.503V86.7727ZM780.437 224.273C770.683 224.273 762.184 221.834 754.94 216.957C747.743 212.08 742.156 205.404 738.178 196.929C734.201 188.454 732.212 178.795 732.212 167.952C732.212 157.014 734.225 147.284 738.249 138.761C742.321 130.239 747.956 123.562 755.153 118.733C762.35 113.856 770.707 111.418 780.224 111.418C787.515 111.418 794.121 112.838 800.039 115.679C805.958 118.473 810.835 122.426 814.67 127.54C818.552 132.606 820.991 138.525 821.985 145.295H809.201C807.875 139.14 804.679 133.884 799.613 129.528C794.594 125.125 788.202 122.923 780.437 122.923C773.477 122.923 767.321 124.817 761.971 128.605C756.621 132.346 752.43 137.578 749.4 144.301C746.417 150.977 744.925 158.719 744.925 167.526C744.925 176.38 746.393 184.216 749.329 191.034C752.264 197.805 756.384 203.108 761.687 206.943C767.037 210.778 773.287 212.696 780.437 212.696C785.266 212.696 789.67 211.796 793.647 209.997C797.672 208.151 801.033 205.546 803.732 202.185C806.478 198.823 808.325 194.822 809.272 190.182H822.056C821.109 196.763 818.765 202.634 815.025 207.795C811.332 212.909 806.526 216.934 800.607 219.869C794.736 222.805 788.013 224.273 780.437 224.273ZM891.552 224.273C882.129 224.273 873.796 221.882 866.552 217.099C859.355 212.317 853.72 205.712 849.648 197.284C845.576 188.809 843.54 179.031 843.54 167.952C843.54 156.777 845.576 146.953 849.648 138.477C853.72 129.955 859.355 123.326 866.552 118.591C873.796 113.809 882.129 111.418 891.552 111.418C900.974 111.418 909.284 113.809 916.481 118.591C923.678 123.373 929.312 130.002 933.384 138.477C937.504 146.953 939.563 156.777 939.563 167.952C939.563 179.031 937.527 188.809 933.455 197.284C929.383 205.712 923.725 212.317 916.481 217.099C909.284 221.882 900.974 224.273 891.552 224.273ZM891.552 212.696C899.128 212.696 905.543 210.66 910.799 206.588C916.055 202.516 920.032 197.095 922.731 190.324C925.477 183.553 926.85 176.096 926.85 167.952C926.85 159.808 925.477 152.327 922.731 145.509C920.032 138.69 916.055 133.222 910.799 129.102C905.543 124.983 899.128 122.923 891.552 122.923C884.023 122.923 877.608 124.983 872.305 129.102C867.049 133.222 863.048 138.69 860.302 145.509C857.603 152.327 856.254 159.808 856.254 167.952C856.254 176.096 857.603 183.553 860.302 190.324C863.048 197.095 867.049 202.516 872.305 206.588C877.56 210.66 883.976 212.696 891.552 212.696ZM967.315 222V112.909H979.602V129.67H980.526C982.704 124.178 986.491 119.751 991.889 116.389C997.334 112.98 1003.49 111.276 1010.36 111.276C1011.4 111.276 1012.56 111.299 1013.84 111.347C1015.11 111.394 1016.18 111.441 1017.03 111.489V124.344C1016.46 124.249 1015.47 124.107 1014.05 123.918C1012.63 123.728 1011.09 123.634 1009.43 123.634C1003.75 123.634 998.684 124.841 994.233 127.256C989.83 129.623 986.349 132.914 983.793 137.128C981.236 141.342 979.957 146.148 979.957 151.545V222H967.315ZM1051.25 153.818V222H1038.6V112.909H1050.89V130.026H1052.03C1054.58 124.438 1058.56 119.964 1063.96 116.602C1069.4 113.193 1076.13 111.489 1084.13 111.489C1091.47 111.489 1097.91 113.027 1103.45 116.105C1109.04 119.135 1113.37 123.61 1116.45 129.528C1119.57 135.447 1121.13 142.715 1121.13 151.332V222H1108.49V152.114C1108.49 143.165 1105.98 136.086 1100.96 130.878C1095.99 125.67 1089.31 123.065 1080.93 123.065C1075.2 123.065 1070.11 124.296 1065.66 126.759C1061.21 129.221 1057.69 132.772 1055.08 137.412C1052.52 142.005 1051.25 147.473 1051.25 153.818ZM1198.53 224.273C1188.35 224.273 1179.54 221.905 1172.11 217.17C1164.68 212.388 1158.92 205.783 1154.85 197.355C1150.83 188.88 1148.81 179.126 1148.81 168.094C1148.81 157.109 1150.83 147.355 1154.85 138.832C1158.92 130.262 1164.53 123.562 1171.68 118.733C1178.88 113.856 1187.19 111.418 1196.61 111.418C1202.53 111.418 1208.24 112.507 1213.73 114.685C1219.22 116.815 1224.15 120.106 1228.5 124.557C1232.9 128.96 1236.38 134.524 1238.94 141.247C1241.5 147.923 1242.78 155.83 1242.78 164.969V171.219H1157.55V160.068H1229.85C1229.85 153.061 1228.43 146.763 1225.59 141.176C1222.8 135.542 1218.89 131.091 1213.87 127.824C1208.9 124.557 1203.15 122.923 1196.61 122.923C1189.7 122.923 1183.62 124.77 1178.36 128.463C1173.1 132.156 1168.98 137.033 1166 143.094C1163.07 149.154 1161.57 155.783 1161.53 162.98V169.656C1161.53 178.321 1163.02 185.897 1166 192.384C1169.03 198.823 1173.32 203.818 1178.86 207.369C1184.4 210.92 1190.95 212.696 1198.53 212.696C1203.69 212.696 1208.21 211.891 1212.1 210.281C1216.03 208.671 1219.32 206.517 1221.97 203.818C1224.67 201.072 1226.7 198.065 1228.08 194.798L1240.08 198.705C1238.42 203.297 1235.7 207.535 1231.91 211.418C1228.17 215.3 1223.48 218.425 1217.85 220.793C1212.26 223.113 1205.82 224.273 1198.53 224.273ZM1270.64 222V112.909H1282.92V129.67H1283.85C1286.02 124.178 1289.81 119.751 1295.21 116.389C1300.65 112.98 1306.81 111.276 1313.68 111.276C1314.72 111.276 1315.88 111.299 1317.16 111.347C1318.43 111.394 1319.5 111.441 1320.35 111.489V124.344C1319.78 124.249 1318.79 124.107 1317.37 123.918C1315.95 123.728 1314.41 123.634 1312.75 123.634C1307.07 123.634 1302 124.841 1297.55 127.256C1293.15 129.623 1289.67 132.914 1287.11 137.128C1284.56 141.342 1283.28 146.148 1283.28 151.545V222H1270.64Z" fill="#18BC59"/>
<rect x="63" width="159" height="24" rx="10" fill="#18BC59"/>
<path d="M124.5 161V212C124.5 213.381 123.381 214.5 122 214.5H83.5V161C83.5 149.678 92.6782 140.5 104 140.5C115.322 140.5 124.5 149.678 124.5 161Z" fill="#18BC59" stroke="#18BC59" stroke-width="15"/>
<mask id="path-4-inside-1_720_3" fill="white">
<path d="M34 161C34 145.536 46.536 133 62 133V133C77.464 133 90 145.536 90 161V222H44C38.4772 222 34 217.523 34 212V161Z"/>
</mask>
<path d="M34 161C34 145.536 46.536 133 62 133V133C77.464 133 90 145.536 90 161V222H44C38.4772 222 34 217.523 34 212V161Z" fill="#18BC59" stroke="#18BC59" stroke-width="30" mask="url(#path-4-inside-1_720_3)"/>
<path d="M222.5 140.5L241 140.5C242.381 140.5 243.5 141.619 243.5 143L243.5 212C243.5 213.381 242.381 214.5 241 214.5L222.5 214.5C202.065 214.5 185.5 197.935 185.5 177.5C185.5 157.065 202.065 140.5 222.5 140.5Z" fill="#18BC59" stroke="#18BC59" stroke-width="15"/>
<path d="M0 69C0 51.3269 14.3269 37 32 37H253C270.673 37 285 51.3269 285 69V106.816H0V69Z" fill="#18BC59"/>
<path d="M0 106.816H71L68.4655 113.406C66.9801 117.268 63.2697 119.816 59.132 119.816H11.868C7.73027 119.816 4.01989 117.268 2.53454 113.406L0 106.816Z" fill="#18BC59"/>
<path d="M71 106.816H142L139.465 113.406C137.98 117.268 134.27 119.816 130.132 119.816H82.868C78.7303 119.816 75.0199 117.268 73.5345 113.406L71 106.816Z" fill="#18BC59"/>
<path d="M142 106.816H214L210.681 114.007C209.047 117.548 205.502 119.816 201.602 119.816H153.868C149.73 119.816 146.02 117.268 144.535 113.406L142 106.816Z" fill="#18BC59"/>
<path d="M214 106.816H285L282.465 113.406C280.98 117.268 277.27 119.816 273.132 119.816H225.868C221.73 119.816 218.02 117.268 216.535 113.406L214 106.816Z" fill="#18BC59"/>
</svg>
