<svg width="1110" height="793" viewBox="0 0 1110 793" fill="none" xmlns="http://www.w3.org/2000/svg">
<path d="M16.4218 334.984C35.8207 145.184 199.6 121.145 310.688 141.445C421.776 161.745 467.507 44.8337 619.611 39.7588C771.715 34.684 746.861 205.389 917.854 262.227C1088.85 319.066 1102.76 559.615 931.772 678.179C760.779 796.743 383.005 781.895 310.688 689.211C213.899 565.162 -7.43783 568.429 16.4218 334.984Z" fill="url(#paint0_linear_107_3)"/>
<path d="M564.51 497.761C568.576 487.988 574.461 476.397 582.165 462.986C589.084 450.859 596.146 440.088 603.351 430.672L613.944 441.051C614.087 452.964 614.729 465.483 615.87 478.608C623.503 462.558 632.098 447.97 641.657 434.845L652.571 444.903C640.872 461.238 629.709 481.961 619.08 507.07L604.849 509.959C602.566 493.124 601.068 477.074 600.355 461.809C590.796 477.859 582.985 493.624 576.922 509.103L564.51 497.761ZM714.691 464.698C707.13 457.921 700.068 452.536 693.505 448.541C686.229 452.322 679.774 458.742 674.138 467.801C668.289 477.146 665.008 486.633 664.294 496.263C675.494 493.196 685.052 485.599 692.97 473.472C695.61 469.335 697.928 464.627 699.925 459.348L714.691 464.698C709.912 478.109 703.67 488.488 695.966 495.835C687.62 503.824 676.849 509.067 663.652 511.564L647.816 497.012C649.885 475.041 658.909 457.351 674.887 443.94C680.451 439.232 686.978 435.13 694.468 431.635C703.956 436.486 712.302 442.692 719.506 450.253L714.691 464.698ZM724.273 497.654C728.624 486.811 733.368 477.288 738.504 469.085C743.711 460.81 748.633 453.463 753.27 447.043C744.71 444.332 737.184 442.157 730.693 440.516L738.611 428.211C754.304 431.207 772.351 436.664 792.753 444.582L785.37 459.348C774.242 454.711 764.612 450.966 756.48 448.113L765.575 456.245C757.371 467.373 750.06 479.892 743.64 493.802C741.428 498.439 739.146 503.539 736.792 509.103L724.273 497.654ZM563.761 631.868C569.396 619.456 577.386 605.796 587.729 590.887C590.796 586.464 593.65 582.648 596.289 579.438C591.296 578.653 587.194 578.261 583.984 578.261L588.906 564.993C607.952 565.635 625.25 569.059 640.801 575.265L634.702 590.78C624.359 586.215 612.66 582.612 599.606 579.973L608.808 587.57C605.455 591.921 601.853 596.879 598.001 602.443C602.352 603.299 609.414 605.261 619.187 608.328L613.944 621.382L600.89 617.102C597.609 616.103 594.149 615.14 590.511 614.213C584.376 624.556 579.526 634.186 575.959 643.103L563.761 631.868ZM699.435 598.698C691.874 591.921 684.812 586.536 678.249 582.541C670.973 586.322 664.518 592.742 658.882 601.801C653.033 611.146 649.752 620.633 649.038 630.263C660.238 627.196 669.796 619.599 677.714 607.472C680.354 603.335 682.672 598.627 684.669 593.348L699.435 598.698C694.656 612.109 688.414 622.488 680.71 629.835C672.364 637.824 661.593 643.067 648.396 645.564L632.56 631.012C634.629 609.041 643.653 591.351 659.631 577.94C665.195 573.232 671.722 569.13 679.212 565.635C688.7 570.486 697.046 576.692 704.25 584.253L699.435 598.698ZM737.051 633.901C731.844 636.612 724.817 639.536 715.972 642.675L702.49 629.728C711.335 606.402 723.212 585.038 738.121 565.635L749.677 577.084C741.973 586.429 734.447 598.27 727.1 612.608C724.96 616.888 723.034 621.025 721.322 625.02C729.882 623.094 737.087 620.954 742.936 618.6V618.814C754.278 595.417 763.872 578.939 771.719 569.38L783.489 580.829C772.361 594.24 760.912 615.747 749.142 645.35L737.051 633.901ZM773.076 631.761C777.142 621.988 783.027 610.397 790.731 596.986C797.651 584.859 804.713 574.088 811.917 564.672L822.51 575.051C822.653 586.964 823.295 599.483 824.436 612.608C832.069 596.558 840.665 581.97 850.223 568.845L861.137 578.903C849.439 595.238 838.275 615.961 827.646 641.07L813.415 643.959C811.133 627.124 809.635 611.074 808.921 595.809C799.363 611.859 791.552 627.624 785.488 643.103L773.076 631.761ZM852.21 630.156C856.704 620.027 860.663 612.037 864.087 606.188C869.793 596.558 875.964 587.713 882.598 579.652C877.105 578.867 872.647 578.475 869.223 578.475L873.824 565.742C882.384 566.099 890.623 566.955 898.541 568.31C906.459 569.594 914.198 571.877 921.76 575.158L928.073 589.496C924.649 603.977 917.052 615.961 905.282 625.448C894.439 634.151 881.314 639.929 865.906 642.782L852.21 630.156ZM871.042 626.839C880.743 624.057 889.339 619.278 896.829 612.501C904.747 605.368 909.954 597.057 912.451 587.57C904.818 584.36 895.901 581.899 885.701 580.187L895.117 587.891C885.13 600.517 877.105 613.5 871.042 626.839Z" fill="white"/>
<path d="M588.618 319.685C562.352 282.445 582.716 215.403 583.954 211.512C583.954 211.512 538.556 192.018 471.407 210.313C404.257 228.609 372.618 271.194 372.618 271.194L369.973 272.17C371.878 340.532 394.754 465.87 471.017 420.324C547.28 374.778 581.194 334.254 588.618 319.685Z" fill="url(#paint1_radial_107_3)"/>
<rect width="17.3756" height="332.174" rx="3" transform="matrix(0.546926 -0.837181 0.826556 0.562854 451.167 211.137)" fill="white"/>
<rect width="17.186" height="293.882" rx="3" transform="matrix(0.441002 -0.897506 0.890051 0.455861 391 266.425)" fill="white"/>
<rect width="11.5205" height="77.7953" rx="3" transform="matrix(0.0978944 -0.995197 0.994785 0.101998 629.31 374.097)" fill="white"/>
<path d="M454.863 140.792L335.513 196.744C333.735 197.578 333.224 199.867 334.479 201.378L340.985 209.206C341.852 210.249 343.312 210.581 344.545 210.014L457.389 158.135C458.454 157.645 459.136 156.581 459.136 155.409V143.508C459.136 141.311 456.852 139.859 454.863 140.792Z" fill="white" stroke="#1C3A14" stroke-width="2"/>
<path d="M458.106 163.971L338.756 219.923C336.978 220.757 336.467 223.046 337.722 224.557L344.228 232.385C345.095 233.428 346.555 233.76 347.788 233.193L460.633 181.314C461.697 180.824 462.379 179.76 462.379 178.588V166.687C462.379 164.49 460.095 163.038 458.106 163.971Z" fill="white" stroke="#1C3A14" stroke-width="2"/>
<path d="M617.96 213.403L463.74 115.872C461.742 114.608 459.136 116.044 459.136 118.407V132.512C459.136 133.534 459.657 134.486 460.518 135.038L614.738 233.844C616.735 235.123 619.356 233.689 619.356 231.318V215.938C619.356 214.91 618.829 213.953 617.96 213.403Z" fill="white" stroke="#1C3A14" stroke-width="2"/>
<path d="M617.96 240.555L463.74 143.024C461.742 141.761 459.136 143.196 459.136 145.56V159.664C459.136 160.687 459.657 161.639 460.518 162.19L614.738 260.996C616.735 262.276 619.356 260.842 619.356 258.47V243.091C619.356 242.062 618.829 241.105 617.96 240.555Z" fill="white" stroke="#1C3A14" stroke-width="2"/>
<path d="M617.96 268.37L463.74 170.839C461.742 169.576 459.136 171.011 459.136 173.375V187.479C459.136 188.502 459.657 189.454 460.518 190.005L614.738 288.811C616.735 290.091 619.356 288.657 619.356 286.285V270.906C619.356 269.877 618.829 268.92 617.96 268.37Z" fill="white" stroke="#1C3A14" stroke-width="2"/>
<path d="M613.507 286.639L453.916 188.012C453.033 187.466 451.929 187.415 451 187.879L439.875 193.429C437.789 194.469 437.635 197.388 439.6 198.642L598.371 299.97C599.389 300.619 600.697 300.596 601.69 299.909L613.635 291.659C615.415 290.43 615.348 287.777 613.507 286.639Z" fill="white" stroke="#1C3A14" stroke-width="2"/>
<path d="M598.048 298.4L430.741 192.682C429.846 192.116 428.719 192.064 427.776 192.545L415.75 198.679C413.696 199.727 413.542 202.604 415.473 203.864L581.974 312.511C583.004 313.183 584.339 313.159 585.344 312.45L598.176 303.387C599.922 302.154 599.855 299.542 598.048 298.4Z" fill="white" stroke="#1C3A14" stroke-width="2"/>
<path d="M578.202 305.547L409.756 204.968C408.851 204.428 407.727 204.403 406.798 204.903L395.728 210.856C393.555 212.025 393.662 215.181 395.89 216.236C470.927 251.744 506.087 276.05 562.515 319.571C563.576 320.39 565.068 320.417 566.147 319.62L578.443 310.535C580.167 309.261 580.041 306.644 578.202 305.547Z" fill="white" stroke="#1C3A14" stroke-width="2"/>
<path d="M559.287 316.526L385.801 224.974C384.857 224.476 383.719 224.519 382.812 225.085L371.457 232.18C369.508 233.398 369.584 236.259 371.594 237.358L544.517 331.894C545.603 332.488 546.945 332.351 547.893 331.549L559.812 321.471C561.438 320.096 561.164 317.517 559.287 316.526Z" fill="white" stroke="#1C3A14" stroke-width="2"/>
<path d="M514.384 343.924L354.109 242.355C353.213 241.787 352.082 241.735 351.137 242.219L339.84 247.997C337.79 249.046 337.637 251.918 339.563 253.179L499.034 357.54C500.065 358.215 501.405 358.19 502.411 357.477L514.513 348.906C516.254 347.672 516.187 345.066 514.384 343.924Z" fill="white" stroke="#1C3A14" stroke-width="2"/>
<path d="M489.518 353.305L346.97 237.27C346.147 236.6 345.034 236.413 344.042 236.777L332.751 240.921C330.591 241.714 330.105 244.553 331.876 246.038L473.313 364.633C474.257 365.425 475.586 365.562 476.666 364.978L489.067 358.273C490.943 357.259 491.179 354.657 489.518 353.305Z" fill="white" stroke="#1C3A14" stroke-width="2"/>
<path d="M531.698 332.393L371.334 221.829C370.45 221.22 369.309 221.128 368.341 221.59L356.431 227.262C354.366 228.245 354.121 231.087 355.987 232.415L515.46 345.857C516.475 346.579 517.83 346.599 518.865 345.908L531.666 337.358C533.428 336.181 533.444 333.597 531.698 332.393Z" fill="white" stroke="#1C3A14" stroke-width="2"/>
<path d="M560.822 317.263L400.458 206.699C399.574 206.09 398.433 205.998 397.465 206.46L385.555 212.132C383.49 213.115 383.245 215.957 385.111 217.285L544.584 330.727C545.599 331.449 546.954 331.469 547.989 330.778L560.79 322.228C562.552 321.051 562.568 318.467 560.822 317.263Z" fill="white" stroke="#1C3A14" stroke-width="2"/>
<rect x="0.660718" y="0.235413" width="130.635" height="13.1565" rx="2.5" transform="matrix(0.899944 -0.436005 0.421492 0.906832 464.79 328.793)" fill="white" stroke="black"/>
<path d="M480.017 310.479L336.539 197.138C334.681 195.67 331.944 196.822 331.704 199.173L330.271 213.201C330.167 214.218 330.588 215.221 331.388 215.861L474.737 330.469C476.593 331.953 479.345 330.804 479.586 328.445L481.149 313.149C481.253 312.126 480.826 311.118 480.017 310.479Z" fill="white" stroke="#1C3A14" stroke-width="2"/>
<path d="M476.125 341.605L332.647 228.264C330.789 226.796 328.052 227.948 327.812 230.299L326.379 244.327C326.275 245.345 326.696 246.347 327.496 246.987L470.845 361.596C472.701 363.079 475.453 361.93 475.694 359.571L477.257 344.275C477.361 343.252 476.934 342.244 476.125 341.605Z" fill="white" stroke="#1C3A14" stroke-width="2"/>
<rect x="614.667" y="198.892" width="5.48665" height="85.7559" rx="2.5" fill="white" stroke="black"/>
<rect x="0.540715" y="0.45368" width="5.4877" height="85.7425" rx="2.5" transform="matrix(0.996033 -0.0889861 0.0853974 0.996347 431.407 257.174)" fill="white" stroke="black"/>
<rect x="0.42518" y="0.56757" width="5.48942" height="85.7204" rx="2.5" transform="matrix(0.989452 0.144861 -0.139091 0.99028 393.282 222.808)" fill="white" stroke="black"/>
<rect x="0.250185" y="0.667248" width="5.51013" height="85.4536" rx="2.5" transform="matrix(0.907088 0.420942 -0.406718 0.913554 350.164 170.398)" fill="white" stroke="black"/>
<rect x="458.987" y="107.5" width="5.48665" height="85.7559" rx="2.5" fill="white" stroke="black"/>
<rect x="501.799" y="132.004" width="5.48665" height="85.7559" rx="2.5" fill="white" stroke="black"/>
<rect x="402.554" y="120.083" width="5.48665" height="85.7559" rx="2.5" fill="white" stroke="black"/>
<rect x="550.449" y="163.13" width="5.48665" height="85.7559" rx="2.5" fill="white" stroke="black"/>
<line y1="-3.5" x2="83.7966" y2="-3.5" transform="matrix(0.983101 -0.183065 0.175861 0.984415 377.628 414.396)" stroke="white" stroke-width="7"/>
<line y1="-3.5" x2="84.3734" y2="-3.5" transform="matrix(0.794733 -0.606959 0.591029 0.80665 265 317.226)" stroke="white" stroke-width="7"/>
<path d="M392.367 308.152L399.436 306.755L410.702 315.67L407.215 317.135L392.367 308.152Z" fill="white" stroke="#0E3408" stroke-width="2"/>
<path d="M408.113 318.922L412.185 317.103L430.824 331.904L407.071 341.961L408.113 318.922Z" fill="white" stroke="#0B3307" stroke-width="2"/>
<path d="M392.008 310.142L390.605 309.29L390.505 310.929L389.405 329.138L389.372 329.686L389.813 330.014L403.655 340.311L405.122 341.402L405.236 339.579L406.494 319.573L406.533 318.96L406.008 318.642L392.008 310.142Z" fill="white" stroke="url(#paint2_linear_107_3)" stroke-width="2"/>
<path d="M444.829 369.176C444.815 373.158 441.375 378.013 432.919 382.122C424.759 386.088 413.179 388.645 400.154 388.598C387.129 388.55 375.568 385.909 367.435 381.884C359.008 377.714 355.602 372.834 355.615 368.851C355.629 364.869 359.07 360.014 367.525 355.905C375.686 351.939 387.265 349.382 400.29 349.429C413.316 349.477 424.877 352.117 433.01 356.143C441.437 360.313 444.843 365.193 444.829 369.176Z" stroke="white" stroke-width="9"/>
<line y1="-3.5" x2="49.0396" y2="-3.5" transform="matrix(0.621687 0.783266 -0.770493 0.637449 380.871 351.373)" stroke="white" stroke-width="7"/>
<line y1="-3.5" x2="83.7966" y2="-3.5" transform="matrix(0.983101 -0.183065 0.175861 0.984415 356.871 377.972)" stroke="white" stroke-width="7"/>
<line y1="-3.5" x2="81.8396" y2="-3.5" transform="matrix(0.959053 0.283226 -0.27259 0.96213 360.763 359.983)" stroke="white" stroke-width="7"/>
<line y1="-3.5" x2="49.0396" y2="-3.5" transform="matrix(-0.621687 0.783266 -0.770493 -0.637449 411.358 347.4)" stroke="white" stroke-width="7"/>
<path d="M655.033 188.621C653.957 158.16 644.813 135.102 640.036 126.936C646.883 130.625 653.583 150.573 658.409 169.639C662.298 155.545 668.07 143.816 668.07 143.816C668.07 143.816 660.921 174.15 661.479 182.712C662.545 187.613 663.437 192.137 664.117 195.922H655.131C654.914 193.573 654.894 191.123 655.033 188.621Z" fill="url(#paint3_linear_107_3)"/>
<path d="M653.873 195.922C654.736 174.786 644.289 160.206 638.957 155.558C646.577 164.365 648.482 186.137 648.482 195.922H653.873Z" fill="url(#paint4_linear_107_3)"/>
<path d="M663.807 195.922C662.945 174.786 673.392 160.206 678.723 155.558C671.104 164.365 669.199 186.137 669.199 195.922H663.807Z" fill="url(#paint5_linear_107_3)"/>
<path d="M146.032 481.949C144.956 451.489 135.811 428.431 131.034 420.264C137.881 423.954 144.581 443.902 149.408 462.967C153.297 448.874 159.069 437.144 159.069 437.144C159.069 437.144 151.919 467.478 152.478 476.04C153.544 480.941 154.435 485.466 155.115 489.251H146.13C145.912 486.902 145.893 484.451 146.032 481.949Z" fill="url(#paint6_linear_107_3)"/>
<path d="M144.872 489.251C145.734 468.114 135.287 453.534 129.956 448.886C137.576 457.693 139.481 479.465 139.481 489.251H144.872Z" fill="url(#paint7_linear_107_3)"/>
<path d="M154.806 489.251C153.943 468.114 164.39 453.534 169.722 448.886C162.102 457.693 160.197 479.465 160.197 489.251H154.806Z" fill="url(#paint8_linear_107_3)"/>
<path d="M187.786 302.298C186.71 271.838 177.565 248.78 172.788 240.613C179.635 244.303 186.335 264.251 191.162 283.316C195.051 269.223 200.823 257.493 200.823 257.493C200.823 257.493 193.673 287.827 194.232 296.39C195.298 301.29 196.189 305.815 196.869 309.6H187.884C187.666 307.251 187.647 304.801 187.786 302.298Z" fill="url(#paint9_linear_107_3)"/>
<path d="M186.626 309.6C187.488 288.463 177.041 273.883 171.71 269.235C179.33 278.042 181.235 299.814 181.235 309.6H186.626Z" fill="url(#paint10_linear_107_3)"/>
<path d="M196.56 309.6C195.697 288.463 206.144 273.883 211.476 269.235C203.856 278.042 201.951 299.814 201.951 309.6H196.56Z" fill="url(#paint11_linear_107_3)"/>
<path d="M685.767 230.235C684.692 199.774 675.547 176.716 670.77 168.55C677.617 172.24 684.317 192.187 689.144 211.253C693.032 197.159 698.805 185.43 698.805 185.43C698.805 185.43 691.655 215.764 692.214 224.326C693.28 229.227 694.171 233.752 694.851 237.536H685.866C685.648 235.187 685.629 232.737 685.767 230.235Z" fill="url(#paint12_linear_107_3)"/>
<path d="M686.68 223.327C687.543 202.19 677.096 187.61 671.764 182.962C679.384 191.769 681.289 213.541 681.289 223.327H686.68Z" fill="url(#paint13_linear_107_3)"/>
<path d="M696.614 223.327C695.752 202.19 706.199 187.61 711.53 182.962C703.91 191.769 702.005 213.541 702.005 223.327H696.614Z" fill="url(#paint14_linear_107_3)"/>
<path d="M781.124 332.742C781.986 311.605 771.539 297.025 766.208 292.377C773.827 301.184 775.732 322.956 775.732 332.742H781.124Z" fill="url(#paint15_linear_107_3)"/>
<path d="M776.2 326.652C775.337 305.516 785.784 290.935 791.115 286.287C783.496 295.094 781.591 316.866 781.591 326.652H776.2Z" fill="url(#paint16_linear_107_3)"/>
<path d="M793.053 342.891C793.916 321.755 783.469 307.175 778.138 302.527C785.757 311.334 787.662 333.106 787.662 342.891H793.053Z" fill="url(#paint17_linear_107_3)"/>
<path d="M788.129 336.802C787.267 315.665 797.714 301.085 803.045 296.437C795.425 305.244 793.521 327.016 793.521 336.802H788.129Z" fill="url(#paint18_linear_107_3)"/>
<path d="M793.053 327.667C793.916 306.531 783.469 291.95 778.138 287.302C785.757 296.109 787.662 317.881 787.662 327.667H793.053Z" fill="url(#paint19_linear_107_3)"/>
<path d="M788.129 321.577C787.267 300.441 797.714 285.861 803.045 281.213C795.425 290.019 793.521 311.792 793.521 321.577H788.129Z" fill="url(#paint20_linear_107_3)"/>
<path d="M777.147 353.041C778.01 331.905 767.563 317.325 762.231 312.677C769.851 321.484 771.756 343.256 771.756 353.041H777.147Z" fill="url(#paint21_linear_107_3)"/>
<path d="M772.223 346.951C771.36 325.815 781.807 311.235 787.139 306.587C779.519 315.394 777.614 337.166 777.614 346.951H772.223Z" fill="url(#paint22_linear_107_3)"/>
<path d="M802.995 356.086C803.857 334.95 793.41 320.37 788.079 315.722C795.699 324.529 797.604 346.301 797.604 356.086H802.995Z" fill="url(#paint23_linear_107_3)"/>
<path d="M798.071 349.996C797.208 328.86 807.655 314.28 812.986 309.632C805.367 318.439 803.462 340.211 803.462 349.996H798.071Z" fill="url(#paint24_linear_107_3)"/>
<path d="M914.339 401.76C915.201 380.624 904.754 366.044 899.423 361.396C907.043 370.203 908.948 391.975 908.948 401.76H914.339Z" fill="url(#paint25_linear_107_3)"/>
<path d="M909.415 395.67C908.552 374.534 918.999 359.954 924.331 355.306C916.711 364.113 914.806 385.885 914.806 395.67H909.415Z" fill="url(#paint26_linear_107_3)"/>
<path d="M924.28 392.625C925.143 371.489 914.696 356.909 909.365 352.261C916.984 361.068 918.889 382.84 918.889 392.625H924.28Z" fill="url(#paint27_linear_107_3)"/>
<path d="M919.356 386.535C918.494 365.399 928.941 350.819 934.272 346.171C926.652 354.978 924.747 376.75 924.747 386.535H919.356Z" fill="url(#paint28_linear_107_3)"/>
<path d="M914.339 386.535C915.201 365.399 904.754 350.819 899.423 346.171C907.043 354.978 908.948 376.75 908.948 386.535H914.339Z" fill="url(#paint29_linear_107_3)"/>
<path d="M909.415 380.446C908.552 359.309 918.999 344.729 924.331 340.081C916.711 348.888 914.806 370.66 914.806 380.446H909.415Z" fill="url(#paint30_linear_107_3)"/>
<path d="M934.222 387.55C935.084 366.414 924.637 351.834 919.306 347.186C926.926 355.993 928.83 377.765 928.83 387.55H934.222Z" fill="url(#paint31_linear_107_3)"/>
<path d="M929.298 381.46C928.435 360.324 938.882 345.744 944.213 341.096C936.594 349.903 934.689 371.675 934.689 381.46H929.298Z" fill="url(#paint32_linear_107_3)"/>
<path d="M647.08 213.995C646.004 183.535 636.86 160.477 632.083 152.31C638.93 156 645.63 175.948 650.456 195.013C654.345 180.92 660.117 169.19 660.117 169.19C660.117 169.19 652.968 199.524 653.526 208.087C654.592 212.987 655.484 217.512 656.164 221.297H647.178C646.961 218.948 646.941 216.498 647.08 213.995Z" fill="url(#paint33_linear_107_3)"/>
<path d="M651.06 215.504C648.598 194.498 636.001 181.818 630.01 178.104C638.912 185.549 644.205 206.728 645.739 216.387L651.06 215.504Z" fill="url(#paint34_linear_107_3)"/>
<path d="M655.854 221.297C654.992 200.161 665.439 185.58 670.77 180.932C663.151 189.739 661.246 211.511 661.246 221.297H655.854Z" fill="url(#paint35_linear_107_3)"/>
<path d="M137.084 499.204C136.009 468.743 126.864 445.685 122.087 437.519C128.934 441.208 135.634 461.156 140.461 480.222C144.349 466.128 150.122 454.399 150.122 454.399C150.122 454.399 142.972 484.733 143.531 493.295C144.597 498.196 145.488 502.72 146.168 506.505H137.183C136.965 504.156 136.946 501.706 137.084 499.204Z" fill="url(#paint36_linear_107_3)"/>
<path d="M141.065 500.712C138.603 479.707 126.005 467.027 120.015 463.313C128.916 470.757 134.209 491.936 135.744 501.596L141.065 500.712Z" fill="url(#paint37_linear_107_3)"/>
<path d="M145.859 506.505C144.996 485.369 155.443 470.789 160.775 466.141C153.155 474.948 151.25 496.72 151.25 506.505H145.859Z" fill="url(#paint38_linear_107_3)"/>
<path d="M344.86 459.62C343.785 429.159 334.64 406.101 329.863 397.935C336.71 401.624 343.41 421.572 348.237 440.638C352.125 426.544 357.897 414.815 357.897 414.815C357.897 414.815 350.748 445.149 351.307 453.711C352.373 458.612 353.264 463.136 353.944 466.921H344.959C344.741 464.572 344.722 462.122 344.86 459.62Z" fill="url(#paint39_linear_107_3)"/>
<path d="M348.841 461.128C346.379 440.123 333.781 427.443 327.791 423.729C336.692 431.173 341.985 452.352 343.52 462.011L348.841 461.128Z" fill="url(#paint40_linear_107_3)"/>
<path d="M353.635 466.921C352.772 445.785 363.219 431.205 368.551 426.557C360.931 435.364 359.026 457.136 359.026 466.921H353.635Z" fill="url(#paint41_linear_107_3)"/>
<path d="M178.838 319.553C177.763 289.092 168.618 266.034 163.841 257.868C170.688 261.557 177.388 281.505 182.215 300.571C186.103 286.477 191.876 274.748 191.876 274.748C191.876 274.748 184.726 305.082 185.285 313.644C186.351 318.545 187.242 323.069 187.922 326.854H178.937C178.719 324.505 178.7 322.055 178.838 319.553Z" fill="url(#paint42_linear_107_3)"/>
<path d="M182.819 321.061C180.357 300.056 167.759 287.376 161.769 283.662C170.67 291.106 175.964 312.286 177.498 321.945L182.819 321.061Z" fill="url(#paint43_linear_107_3)"/>
<path d="M187.613 326.854C186.75 305.718 197.197 291.138 202.529 286.49C194.909 295.297 193.004 317.069 193.004 326.854H187.613Z" fill="url(#paint44_linear_107_3)"/>
<rect x="-1.93862" y="-0.822753" width="20.9477" height="87.0026" rx="10.4738" transform="matrix(0.924438 -0.381334 0.367976 0.929835 414.437 596.828)" fill="url(#paint45_linear_107_3)" stroke="#5CB981" stroke-width="3"/>
<rect x="-1.32228" y="-1.66515" width="20.8995" height="87.2208" rx="10.4498" transform="matrix(0.993208 0.116357 -0.111689 0.993743 413.877 591.172)" fill="url(#paint46_linear_107_3)" stroke="#5CB981" stroke-width="3"/>
<rect x="-0.526299" y="-2.07486" width="24.4461" height="99.4353" rx="10.5" transform="matrix(-0.503692 0.863883 0.854558 0.519356 426.065 585.163)" fill="url(#paint47_linear_107_3)" stroke="#5CB981" stroke-width="3"/>
<path d="M411.489 593.802C408.802 588.166 402.151 586.723 396.865 590.163L336.001 629.76C330.798 633.146 328.489 640.199 331.096 645.668C333.783 651.304 340.434 652.747 345.72 649.307L406.583 609.71C411.787 606.324 414.096 599.271 411.489 593.802Z" fill="url(#paint48_linear_107_3)" stroke="#5CB981" stroke-width="3"/>
<path d="M385.948 531.404C379.206 545.553 375.992 555.865 385.948 575.556C391.856 587.24 404.226 591.002 413.784 590.781C421.24 590.608 423.975 588.536 429.596 584.911C443.42 575.996 461.876 542.959 468.434 537.397C459.707 536.146 440.99 539.758 437.049 545.224C432.392 529.844 453.125 514.544 467.67 505.63C454.661 506.321 441.615 514.963 438.057 520.431C431.909 510.513 446.579 496.938 449.814 493.267C437.713 495.835 422.205 509.223 421.867 512.906C418.251 490.697 395.015 485.698 382.814 486.789C400.808 492.328 407.179 513.53 404.389 522.153C402.981 518.25 386.943 513.185 382.826 512.426C390.569 517.265 395.515 534.448 397.172 544.421C389.638 542.295 386.56 536.262 385.948 531.404Z" fill="url(#paint49_linear_107_3)"/>
<path d="M424.798 543.605C405.336 562.587 413.962 581.178 420.708 588.101C420.882 584.911 414.469 583.288 436.756 559.554C454.586 540.566 441.014 506.289 431.999 491.524C437.708 500.975 444.26 524.623 424.798 543.605Z" fill="#5CB966"/>
<path d="M415.017 525.945C402.031 550.015 415.724 565.106 424.194 569.643C423.422 566.547 416.828 566.964 431.112 537.495C442.539 513.92 419.518 485.381 406.578 474.058C414.802 481.325 428.003 501.876 415.017 525.945Z" fill="#69B95C"/>
<path d="M413.595 551.079C425.474 532.816 411.12 522.585 402.458 519.752C403.369 521.965 409.934 521.293 397.003 543.562C386.659 561.376 410.934 580.886 424.365 588.413C415.826 583.578 401.717 569.341 413.595 551.079Z" fill="#5CB966"/>
<path d="M431.928 554.678C430.23 536.638 457.943 521.906 463.139 518.118C470.014 520.499 453.442 536.458 449.033 556.339C444.623 576.22 430.981 584.305 418.975 587.651C424.403 581.271 434.051 577.228 431.928 554.678Z" fill="url(#paint50_linear_107_3)"/>
<path d="M403.484 560.557C403.352 542.434 383.63 526.468 375.385 522.303C367.14 518.138 395.038 539.767 388.927 559.173C382.815 578.579 417.839 591.536 420.921 587.854C424.003 584.171 403.648 583.21 403.484 560.557Z" fill="url(#paint51_linear_107_3)"/>
<path d="M417.411 594.575C412.992 590.248 406.26 591.179 402.45 596.19L358.631 653.834C354.88 658.767 355.085 666.125 359.374 670.325C363.793 674.652 370.525 673.722 374.334 668.71L418.154 611.067C421.904 606.134 421.7 598.775 417.411 594.575Z" fill="url(#paint52_linear_107_3)" stroke="#5CB981" stroke-width="3"/>
<path d="M371 635.001L346 651.001L356.417 655.001L371 635.001Z" fill="url(#paint53_linear_107_3)"/>
<path d="M407 628.001L385 656.381L402.907 657.001L407 628.001Z" fill="url(#paint54_linear_107_3)"/>
<path d="M449.266 629.001L459.06 653.344L474.56 643.708L449.266 629.001Z" fill="url(#paint55_linear_107_3)"/>
<path d="M428.857 643.001L436 662.423L426 666.001L428.857 643.001Z" fill="url(#paint56_linear_107_3)"/>
<ellipse cx="424" cy="467.001" rx="2" ry="4" fill="#50BD35"/>
<circle cx="442.5" cy="486.501" r="2.5" fill="#69B95C"/>
<ellipse cx="402" cy="478.501" rx="1" ry="1.5" fill="#60BD35"/>
<path d="M411.5 449.501C411.5 450.329 411.052 451.001 410.5 451.001C409.948 451.001 409.5 450.329 409.5 449.501C409.5 448.672 409.948 448.001 410.5 448.001C411.052 448.001 411.5 448.672 411.5 449.501Z" fill="#3551BD"/>
<path d="M880.748 171.107C874.498 171.883 867.956 171.799 865.498 170.849L865.151 249.847L853.998 315.897H887.998L880.748 171.107Z" fill="#EAEAEA"/>
<path d="M882.998 208.069C906.802 196.46 906.85 172.438 903.849 162L907.617 158.677C910.818 193.91 893.083 216.3 883.498 222.579L882.998 208.069Z" fill="#EAEAEA"/>
<path d="M864.998 185.326C845.65 179.265 844.164 167.908 845.161 162.335L839.998 158.677C840.432 176.443 856.211 188.81 864.998 193.164V185.326Z" fill="#EAEAEA"/>
<path d="M797.105 85.3088C798.268 38.194 833.071 0.835916 874.84 1.86708C916.61 2.89824 949.527 41.9282 948.364 89.043C947.201 136.158 912.398 173.516 870.628 172.485C828.859 171.454 795.941 132.424 797.105 85.3088Z" fill="#368D4E"/>
<path d="M837 109.001C896.394 68.6918 859.658 59.6335 877 2.00056C917.185 3.02911 951.502 43.5331 950.339 90.6479C949.176 137.763 915.5 172.001 872.603 174.09C830.834 173.058 789.5 129.501 837 109.001Z" fill="#224626"/>
<path d="M158.687 170.107H146.998L134.444 272.422H167.779L158.687 170.107Z" fill="#C4C4C4"/>
<path d="M153.475 50.1792L178.189 74.7491L128.908 74.8909L153.475 50.1792Z" fill="#368D4E"/>
<path d="M154.411 64.0914L188.398 98.5944L119.912 98.0747L154.411 64.0914Z" fill="#368D4E"/>
<path d="M155.014 85.6029L197.092 128.321L112.3 127.678L155.014 85.6029Z" fill="#368D4E"/>
<path d="M153.381 112.705L210.894 171.092L94.9999 170.212L153.381 112.705Z" fill="#368D4E"/>
<path d="M129 96.0005L186 98.0005L153.127 65.9164L129 96.0005Z" fill="#224626"/>
<path d="M135 73.5005L175.171 73.8743L153.127 52.4226L135 73.5005Z" fill="#224626"/>
<path d="M132.5 124.001L194 127.001L153.127 89.0982L132.5 124.001Z" fill="#224626"/>
<path d="M126 167.001L210.5 171.001L162 121.501L153.127 124.736L126 167.001Z" fill="#224626"/>
<path d="M958.424 708.142C959.862 708.764 958.184 710.217 957.944 710.217C958.617 710.217 959.143 712.291 957.226 712.084C956.008 711.952 956.666 710.977 957.226 710.424C956.746 710.632 954.59 710.217 955.069 709.179C955.452 708.35 956.587 709.318 957.226 709.802C957.066 709.11 957.274 707.644 958.424 708.142Z" fill="#141C3A" fill-opacity="0.94"/>
<path d="M974.663 646.499C970.163 648.999 976.163 656.999 976.663 657.999C978.263 653.599 983.33 651.832 985.663 651.499C983.497 648.999 978.263 644.499 974.663 646.499Z" fill="#222A46"/>
<path d="M1003.54 645.736C999.959 642.037 993.785 649.903 992.948 650.645C997.612 651.051 1000.63 655.488 1001.56 657.656C1003.41 654.916 1006.4 648.696 1003.54 645.736Z" fill="#222A46"/>
<path d="M1044.94 654.748C1024.94 568.733 1073.6 536.41 1100.44 531.001C1058.84 551.287 1093.44 613.668 1103.44 648.154C1140.44 806.895 990.937 766.323 1027.94 763.787C1057.54 761.758 1051.6 690.249 1044.94 654.748Z" fill="#153B18"/>
<path d="M1081 543.172C1021.5 594.903 1136 738.936 1030 765.308" stroke="url(#paint57_linear_107_3)" stroke-width="5" stroke-linecap="round"/>
<ellipse cx="990.5" cy="666.001" rx="16.5" ry="16" fill="#B9B9B9"/>
<path d="M1031.33 706.195C1041.8 734.659 1047.17 756.441 1024.79 765.26C992.298 776.107 982.474 762.274 971.997 733.81C961.52 705.347 974.106 677.37 988.263 672.057C1002.42 666.745 1020.85 677.731 1031.33 706.195Z" fill="#C4C4C4"/>
<path d="M1100 771.83C1100.13 775.395 1090.96 779.164 1074.49 782.314C1058.02 785.464 1035.58 787.739 1012.09 788.643C988.589 789.546 965.94 789.004 949.086 787.136C932.232 785.267 922.544 782.223 922.137 778.669C921.731 775.116 930.639 771.34 946.915 768.169C963.192 764.997 985.515 762.686 1009.01 761.741C1032.5 760.797 1055.25 761.295 1072.29 763.126C1089.34 764.958 1099.28 767.975 1099.96 771.518L1011.06 775.172L1100 771.83Z" fill="url(#paint58_radial_107_3)"/>
<path d="M1011.74 761.21C1012.06 760.513 1013.02 760.431 1013.46 761.062L1018.91 768.875C1019.35 769.506 1018.95 770.378 1018.18 770.443L1008.69 771.257C1007.92 771.323 1007.37 770.534 1007.7 769.837L1011.74 761.21Z" fill="#C4C4C4"/>
<path d="M997.738 765.21C998.064 764.513 999.023 764.431 999.464 765.062L1004.91 772.875C1005.35 773.506 1004.95 774.378 1004.18 774.443L994.688 775.257C993.921 775.323 993.371 774.534 993.697 773.837L997.738 765.21Z" fill="#C4C4C4"/>
<line x1="994.963" y1="775.175" x2="1003.94" y2="774.502" stroke="url(#paint59_linear_107_3)"/>
<path d="M1009.5 771.501L1017.45 770.638" stroke="url(#paint60_linear_107_3)"/>
<path d="M92.0344 195.567H75.1428L56.9999 343.422H105.172L92.0344 195.567Z" fill="#C4C4C4"/>
<path d="M84.5023 22.2587L120.217 57.7646L48.9999 57.9697L84.5023 22.2587Z" fill="#368D4E"/>
<path d="M85.8553 42.3633L134.969 92.2235L36 91.4725L85.8553 42.3633Z" fill="#368D4E"/>
<path d="M86.7259 73.4496L147.534 135.181L25 134.252L86.7259 73.4496Z" fill="#368D4E"/>
<path d="M84.3666 112.614L167.479 196.989L-1.42539e-05 195.718L84.3666 112.614Z" fill="#368D4E"/>
<path d="M53.9031 80.7238C51.5711 83.2034 53.2058 87.2778 56.6053 87.4588L122.333 90.9591C125.963 91.1524 127.947 86.7957 125.419 84.1834L90.4161 48.0139C88.8283 46.3731 86.1918 46.3916 84.6279 48.0545L53.9031 80.7238Z" fill="#224626"/>
<path d="M60.7945 49.8859C58.3914 52.4113 60.1448 56.5888 63.6308 56.6432L108.069 57.3376C111.736 57.3949 113.54 52.8996 110.851 50.4056L86.8956 28.1865C85.2904 26.6976 82.7868 26.7754 81.2779 28.3611L60.7945 49.8859Z" fill="#224626"/>
<path d="M43.2715 123.17C40.9837 125.68 42.6667 129.719 46.0596 129.862L133.125 133.541C136.844 133.698 138.741 129.136 136.009 126.608L86.9577 81.2364C85.3276 79.7285 82.7816 79.8366 81.2858 81.4771L43.2715 123.17Z" fill="#224626"/>
<path d="M30.0161 182.387C27.9362 184.922 29.6231 188.746 32.8977 188.919L156.142 195.451C159.796 195.645 161.77 191.236 159.191 188.639L98.457 127.468C97.5431 126.548 96.2397 126.127 94.9603 126.34L74.4814 129.754C73.5263 129.913 72.6615 130.413 72.0473 131.161L30.0161 182.387Z" fill="#224626"/>
<defs>
<linearGradient id="paint0_linear_107_3" x1="538.129" y1="20.1629" x2="538.129" y2="692.464" gradientUnits="userSpaceOnUse">
<stop stop-color="#26B83D"/>
<stop offset="0.9076" stop-color="#143A18"/>
</linearGradient>
<radialGradient id="paint1_radial_107_3" cx="0" cy="0" r="1" gradientUnits="userSpaceOnUse" gradientTransform="translate(469.297 309.995) rotate(95.3145) scale(91.2326 106.104)">
<stop/>
<stop offset="1" stop-opacity="0"/>
</radialGradient>
<linearGradient id="paint2_linear_107_3" x1="400.002" y1="316.523" x2="394.443" y2="333.319" gradientUnits="userSpaceOnUse">
<stop stop-color="#052B0D"/>
<stop offset="1" stop-color="#143A1A" stop-opacity="0.94"/>
</linearGradient>
<linearGradient id="paint3_linear_107_3" x1="654.053" y1="126.936" x2="654.053" y2="195.922" gradientUnits="userSpaceOnUse">
<stop stop-color="#20A62D"/>
<stop offset="1" stop-color="white" stop-opacity="0"/>
</linearGradient>
<linearGradient id="paint4_linear_107_3" x1="646.44" y1="155.558" x2="646.44" y2="195.922" gradientUnits="userSpaceOnUse">
<stop stop-color="#20A62D"/>
<stop offset="1" stop-color="white" stop-opacity="0"/>
</linearGradient>
<linearGradient id="paint5_linear_107_3" x1="671.24" y1="155.558" x2="671.24" y2="195.922" gradientUnits="userSpaceOnUse">
<stop stop-color="#20A62D"/>
<stop offset="1" stop-color="white" stop-opacity="0"/>
</linearGradient>
<linearGradient id="paint6_linear_107_3" x1="145.051" y1="420.264" x2="145.051" y2="489.251" gradientUnits="userSpaceOnUse">
<stop stop-color="#20A635"/>
<stop offset="1" stop-color="white" stop-opacity="0"/>
</linearGradient>
<linearGradient id="paint7_linear_107_3" x1="137.439" y1="448.886" x2="137.439" y2="489.251" gradientUnits="userSpaceOnUse">
<stop stop-color="#20A646"/>
<stop offset="1" stop-color="white" stop-opacity="0"/>
</linearGradient>
<linearGradient id="paint8_linear_107_3" x1="162.239" y1="448.886" x2="162.239" y2="489.251" gradientUnits="userSpaceOnUse">
<stop stop-color="#20A625"/>
<stop offset="1" stop-color="white" stop-opacity="0"/>
</linearGradient>
<linearGradient id="paint9_linear_107_3" x1="186.805" y1="240.613" x2="186.805" y2="309.6" gradientUnits="userSpaceOnUse">
<stop stop-color="#20A62D"/>
<stop offset="1" stop-color="white" stop-opacity="0"/>
</linearGradient>
<linearGradient id="paint10_linear_107_3" x1="179.193" y1="269.235" x2="179.193" y2="309.6" gradientUnits="userSpaceOnUse">
<stop stop-color="#20A62D"/>
<stop offset="1" stop-color="white" stop-opacity="0"/>
</linearGradient>
<linearGradient id="paint11_linear_107_3" x1="203.993" y1="269.235" x2="203.993" y2="309.6" gradientUnits="userSpaceOnUse">
<stop stop-color="#20A62D"/>
<stop offset="1" stop-color="white" stop-opacity="0"/>
</linearGradient>
<linearGradient id="paint12_linear_107_3" x1="684.787" y1="168.55" x2="684.787" y2="237.536" gradientUnits="userSpaceOnUse">
<stop stop-color="#20A62D"/>
<stop offset="1" stop-color="white" stop-opacity="0"/>
</linearGradient>
<linearGradient id="paint13_linear_107_3" x1="679.247" y1="182.962" x2="679.247" y2="223.327" gradientUnits="userSpaceOnUse">
<stop stop-color="#20A62D"/>
<stop offset="1" stop-color="white" stop-opacity="0"/>
</linearGradient>
<linearGradient id="paint14_linear_107_3" x1="704.047" y1="182.962" x2="704.047" y2="223.327" gradientUnits="userSpaceOnUse">
<stop stop-color="#20A62D"/>
<stop offset="1" stop-color="white" stop-opacity="0"/>
</linearGradient>
<linearGradient id="paint15_linear_107_3" x1="773.691" y1="292.377" x2="773.691" y2="332.742" gradientUnits="userSpaceOnUse">
<stop stop-color="#20A62D"/>
<stop offset="1" stop-color="white" stop-opacity="0"/>
</linearGradient>
<linearGradient id="paint16_linear_107_3" x1="783.632" y1="286.287" x2="783.632" y2="326.652" gradientUnits="userSpaceOnUse">
<stop stop-color="#20A62D"/>
<stop offset="1" stop-color="white" stop-opacity="0"/>
</linearGradient>
<linearGradient id="paint17_linear_107_3" x1="785.621" y1="302.527" x2="785.621" y2="342.891" gradientUnits="userSpaceOnUse">
<stop stop-color="#20A62D"/>
<stop offset="1" stop-color="white" stop-opacity="0"/>
</linearGradient>
<linearGradient id="paint18_linear_107_3" x1="795.562" y1="296.437" x2="795.562" y2="336.802" gradientUnits="userSpaceOnUse">
<stop stop-color="#20A62D"/>
<stop offset="1" stop-color="white" stop-opacity="0"/>
</linearGradient>
<linearGradient id="paint19_linear_107_3" x1="785.621" y1="287.302" x2="785.621" y2="327.667" gradientUnits="userSpaceOnUse">
<stop stop-color="#20A62D"/>
<stop offset="1" stop-color="white" stop-opacity="0"/>
</linearGradient>
<linearGradient id="paint20_linear_107_3" x1="795.562" y1="281.213" x2="795.562" y2="321.577" gradientUnits="userSpaceOnUse">
<stop stop-color="#20A62D"/>
<stop offset="1" stop-color="white" stop-opacity="0"/>
</linearGradient>
<linearGradient id="paint21_linear_107_3" x1="769.714" y1="312.677" x2="769.714" y2="353.041" gradientUnits="userSpaceOnUse">
<stop stop-color="#20A62D"/>
<stop offset="1" stop-color="white" stop-opacity="0"/>
</linearGradient>
<linearGradient id="paint22_linear_107_3" x1="779.656" y1="306.587" x2="779.656" y2="346.951" gradientUnits="userSpaceOnUse">
<stop stop-color="#20A62D"/>
<stop offset="1" stop-color="white" stop-opacity="0"/>
</linearGradient>
<linearGradient id="paint23_linear_107_3" x1="795.562" y1="315.722" x2="795.562" y2="356.086" gradientUnits="userSpaceOnUse">
<stop stop-color="#20A62D"/>
<stop offset="1" stop-color="white" stop-opacity="0"/>
</linearGradient>
<linearGradient id="paint24_linear_107_3" x1="805.503" y1="309.632" x2="805.503" y2="349.996" gradientUnits="userSpaceOnUse">
<stop stop-color="#20A62D"/>
<stop offset="1" stop-color="white" stop-opacity="0"/>
</linearGradient>
<linearGradient id="paint25_linear_107_3" x1="906.906" y1="361.396" x2="906.906" y2="401.76" gradientUnits="userSpaceOnUse">
<stop stop-color="#20A62D"/>
<stop offset="1" stop-color="white" stop-opacity="0"/>
</linearGradient>
<linearGradient id="paint26_linear_107_3" x1="916.848" y1="355.306" x2="916.848" y2="395.67" gradientUnits="userSpaceOnUse">
<stop stop-color="#20A62D"/>
<stop offset="1" stop-color="white" stop-opacity="0"/>
</linearGradient>
<linearGradient id="paint27_linear_107_3" x1="916.848" y1="352.261" x2="916.848" y2="392.625" gradientUnits="userSpaceOnUse">
<stop stop-color="#20A62D"/>
<stop offset="1" stop-color="white" stop-opacity="0"/>
</linearGradient>
<linearGradient id="paint28_linear_107_3" x1="926.789" y1="346.171" x2="926.789" y2="386.535" gradientUnits="userSpaceOnUse">
<stop stop-color="#20A62D"/>
<stop offset="1" stop-color="white" stop-opacity="0"/>
</linearGradient>
<linearGradient id="paint29_linear_107_3" x1="906.906" y1="346.171" x2="906.906" y2="386.535" gradientUnits="userSpaceOnUse">
<stop stop-color="#20A62D"/>
<stop offset="1" stop-color="white" stop-opacity="0"/>
</linearGradient>
<linearGradient id="paint30_linear_107_3" x1="916.848" y1="340.081" x2="916.848" y2="380.446" gradientUnits="userSpaceOnUse">
<stop stop-color="#20A62D"/>
<stop offset="1" stop-color="white" stop-opacity="0"/>
</linearGradient>
<linearGradient id="paint31_linear_107_3" x1="926.789" y1="347.186" x2="926.789" y2="387.55" gradientUnits="userSpaceOnUse">
<stop stop-color="#20A62D"/>
<stop offset="1" stop-color="white" stop-opacity="0"/>
</linearGradient>
<linearGradient id="paint32_linear_107_3" x1="936.73" y1="341.096" x2="936.73" y2="381.46" gradientUnits="userSpaceOnUse">
<stop stop-color="#20A62D"/>
<stop offset="1" stop-color="white" stop-opacity="0"/>
</linearGradient>
<linearGradient id="paint33_linear_107_3" x1="646.1" y1="152.31" x2="646.1" y2="221.297" gradientUnits="userSpaceOnUse">
<stop stop-color="#20A62D"/>
<stop offset="1" stop-color="white" stop-opacity="0"/>
</linearGradient>
<linearGradient id="paint34_linear_107_3" x1="637.396" y1="176.878" x2="644.004" y2="216.675" gradientUnits="userSpaceOnUse">
<stop stop-color="#20A62D"/>
<stop offset="1" stop-color="white" stop-opacity="0"/>
</linearGradient>
<linearGradient id="paint35_linear_107_3" x1="663.287" y1="180.932" x2="663.287" y2="221.297" gradientUnits="userSpaceOnUse">
<stop stop-color="#20A62D"/>
<stop offset="1" stop-color="white" stop-opacity="0"/>
</linearGradient>
<linearGradient id="paint36_linear_107_3" x1="136.104" y1="437.519" x2="136.104" y2="506.505" gradientUnits="userSpaceOnUse">
<stop stop-color="#2BA620"/>
<stop offset="1" stop-color="white" stop-opacity="0"/>
</linearGradient>
<linearGradient id="paint37_linear_107_3" x1="127.401" y1="462.086" x2="134.008" y2="501.884" gradientUnits="userSpaceOnUse">
<stop stop-color="#2BA620"/>
<stop offset="1" stop-color="white" stop-opacity="0"/>
</linearGradient>
<linearGradient id="paint38_linear_107_3" x1="153.292" y1="466.141" x2="153.292" y2="506.505" gradientUnits="userSpaceOnUse">
<stop stop-color="#2BA620"/>
<stop offset="1" stop-color="white" stop-opacity="0"/>
</linearGradient>
<linearGradient id="paint39_linear_107_3" x1="343.88" y1="397.935" x2="343.88" y2="466.921" gradientUnits="userSpaceOnUse">
<stop stop-color="#20A62D"/>
<stop offset="1" stop-color="white" stop-opacity="0"/>
</linearGradient>
<linearGradient id="paint40_linear_107_3" x1="335.177" y1="422.502" x2="341.784" y2="462.3" gradientUnits="userSpaceOnUse">
<stop stop-color="#20A62D"/>
<stop offset="1" stop-color="white" stop-opacity="0"/>
</linearGradient>
<linearGradient id="paint41_linear_107_3" x1="361.068" y1="426.557" x2="361.068" y2="466.921" gradientUnits="userSpaceOnUse">
<stop stop-color="#20A62D"/>
<stop offset="1" stop-color="white" stop-opacity="0"/>
</linearGradient>
<linearGradient id="paint42_linear_107_3" x1="177.858" y1="257.868" x2="177.858" y2="326.854" gradientUnits="userSpaceOnUse">
<stop stop-color="#20A62D"/>
<stop offset="1" stop-color="white" stop-opacity="0"/>
</linearGradient>
<linearGradient id="paint43_linear_107_3" x1="169.155" y1="282.435" x2="175.762" y2="322.233" gradientUnits="userSpaceOnUse">
<stop stop-color="#20A62D"/>
<stop offset="1" stop-color="white" stop-opacity="0"/>
</linearGradient>
<linearGradient id="paint44_linear_107_3" x1="195.046" y1="286.49" x2="195.046" y2="326.854" gradientUnits="userSpaceOnUse">
<stop stop-color="#20A62D"/>
<stop offset="1" stop-color="white" stop-opacity="0"/>
</linearGradient>
<linearGradient id="paint45_linear_107_3" x1="8.97384" y1="0" x2="8.97384" y2="84.0026" gradientUnits="userSpaceOnUse">
<stop stop-color="#219C1E"/>
<stop offset="1" stop-color="#010501"/>
</linearGradient>
<linearGradient id="paint46_linear_107_3" x1="8.94975" y1="0" x2="8.94975" y2="84.2208" gradientUnits="userSpaceOnUse">
<stop stop-color="#219D1F"/>
<stop offset="1" stop-color="#030B02"/>
</linearGradient>
<linearGradient id="paint47_linear_107_3" x1="10.723" y1="0" x2="10.723" y2="96.4353" gradientUnits="userSpaceOnUse">
<stop stop-color="#23A620"/>
<stop offset="1"/>
</linearGradient>
<linearGradient id="paint48_linear_107_3" x1="394.451" y1="582.743" x2="346.758" y2="655.829" gradientUnits="userSpaceOnUse">
<stop stop-color="#219C1E"/>
<stop offset="1" stop-color="#020701"/>
</linearGradient>
<linearGradient id="paint49_linear_107_3" x1="419.452" y1="483.853" x2="427.732" y2="587.23" gradientUnits="userSpaceOnUse">
<stop stop-color="#35BD3A"/>
<stop offset="1" stop-color="#48BD35" stop-opacity="0"/>
</linearGradient>
<linearGradient id="paint50_linear_107_3" x1="448.981" y1="515.419" x2="434.644" y2="590.638" gradientUnits="userSpaceOnUse">
<stop stop-color="#20A666"/>
<stop offset="1" stop-color="#23A620" stop-opacity="0"/>
</linearGradient>
<linearGradient id="paint51_linear_107_3" x1="404.176" y1="530.372" x2="389.765" y2="580.798" gradientUnits="userSpaceOnUse">
<stop stop-color="#33A620"/>
<stop offset="1" stop-color="#20A62D" stop-opacity="0"/>
</linearGradient>
<linearGradient id="paint52_linear_107_3" x1="397.696" y1="590.119" x2="378.34" y2="674.61" gradientUnits="userSpaceOnUse">
<stop stop-color="#219C1E"/>
<stop offset="1" stop-color="#020A02"/>
</linearGradient>
<linearGradient id="paint53_linear_107_3" x1="358.153" y1="635.001" x2="358.153" y2="655.001" gradientUnits="userSpaceOnUse">
<stop/>
<stop offset="1" stop-opacity="0"/>
</linearGradient>
<linearGradient id="paint54_linear_107_3" x1="407" y1="627.485" x2="389.362" y2="664.004" gradientUnits="userSpaceOnUse">
<stop/>
<stop offset="0.752436" stop-opacity="0"/>
</linearGradient>
<linearGradient id="paint55_linear_107_3" x1="449.163" y1="638.382" x2="464.162" y2="638.547" gradientUnits="userSpaceOnUse">
<stop/>
<stop offset="1" stop-opacity="0"/>
</linearGradient>
<linearGradient id="paint56_linear_107_3" x1="432.19" y1="643.001" x2="432.19" y2="687.978" gradientUnits="userSpaceOnUse">
<stop/>
<stop offset="0.443085" stop-opacity="0"/>
</linearGradient>
<linearGradient id="paint57_linear_107_3" x1="1053.52" y1="556.73" x2="1053.52" y2="765.308" gradientUnits="userSpaceOnUse">
<stop stop-color="white" stop-opacity="0"/>
<stop offset="0.520833" stop-color="white"/>
<stop offset="1" stop-color="white" stop-opacity="0"/>
</linearGradient>
<radialGradient id="paint58_radial_107_3" cx="0" cy="0" r="1" gradientUnits="userSpaceOnUse" gradientTransform="translate(1016 781.501) rotate(87.8485) scale(13.5 89)">
<stop stop-color="#C4C4C4"/>
<stop offset="1" stop-color="#C4C4C4" stop-opacity="0"/>
</radialGradient>
<linearGradient id="paint59_linear_107_3" x1="999.487" y1="775.337" x2="999.562" y2="776.334" gradientUnits="userSpaceOnUse">
<stop stop-opacity="0.28"/>
<stop offset="1" stop-opacity="0"/>
</linearGradient>
<linearGradient id="paint60_linear_107_3" x1="1013.48" y1="771.069" x2="1013.58" y2="772.063" gradientUnits="userSpaceOnUse">
<stop stop-opacity="0.43"/>
<stop offset="1" stop-opacity="0"/>
</linearGradient>
</defs>
</svg>
