<svg width="585" height="1198" viewBox="0 0 585 1198" fill="none" xmlns="http://www.w3.org/2000/svg">
<path d="M78 706.91L554 545.287L237 726.607L78 706.91Z" fill="url(#paint0_linear_691_2)"/>
<path d="M264 788.226L554 545.287L237 726.61L264 788.226Z" fill="#014542"/>
<path d="M383 856.914L553.999 545.285L275.5 743.273L383 856.914Z" fill="url(#paint1_linear_691_2)"/>
<path d="M463.5 709.939L554 545.289L368.402 676.66L463.5 709.939Z" fill="url(#paint2_linear_691_2)"/>
<path d="M348 662.97L554 545.291L292.5 634.181L348 662.97Z" fill="url(#paint3_linear_691_2)"/>
<path d="M294 762.971L264.5 788.225L275.5 743.273L294 762.971Z" fill="#002737"/>
<path d="M264 790C264 790 168 863.725 126 927.855C99.4029 968.466 177.653 991.79 179 1040.46C181.575 1133.51 1 1197 1 1197" stroke="#816D6D" stroke-width="2" stroke-linejoin="round" stroke-dasharray="4 13"/>
<path d="M380.222 145.859C380.222 194.924 419.599 234.7 468.172 234.7C516.745 234.7 556.121 194.924 556.121 145.859C556.121 96.7931 516.745 57.0175 468.172 57.0175C419.599 57.0175 380.222 96.7931 380.222 145.859Z" fill="url(#paint4_linear_691_2)"/>
<path d="M294.898 81.5483C294.898 117.066 323.402 145.859 358.563 145.859C393.724 145.859 422.228 117.066 422.228 81.5483C422.228 46.0306 393.724 17.2378 358.563 17.2378C323.402 17.2378 294.898 46.0306 294.898 81.5483Z" fill="url(#paint5_linear_691_2)"/>
<path d="M347.405 64.3104C347.405 99.8281 375.909 128.621 411.07 128.621C446.231 128.621 474.735 99.8281 474.735 64.3104C474.735 28.7928 446.231 0 411.07 0C375.909 0 347.405 28.7928 347.405 64.3104Z" fill="url(#paint6_linear_691_2)"/>
<path d="M204.324 294.368C204.324 343.434 243.7 383.21 292.273 383.21C340.846 383.21 380.223 343.434 380.223 294.368C380.223 245.303 340.846 205.527 292.273 205.527C243.7 205.527 204.324 245.303 204.324 294.368Z" fill="url(#paint7_linear_691_2)"/>
<path d="M119 230.058C119 265.576 147.504 294.368 182.665 294.368C217.826 294.368 246.33 265.576 246.33 230.058C246.33 194.54 217.826 165.748 182.665 165.748C147.504 165.748 119 194.54 119 230.058Z" fill="url(#paint8_linear_691_2)"/>
<path d="M171.507 212.82C171.507 248.338 200.011 277.131 235.172 277.131C270.333 277.131 298.837 248.338 298.837 212.82C298.837 177.303 270.333 148.51 235.172 148.51C200.011 148.51 171.507 177.303 171.507 212.82Z" fill="url(#paint9_linear_691_2)"/>
<path d="M220.076 251.939C220.076 301.004 259.452 340.78 308.025 340.78C356.598 340.78 395.974 301.004 395.974 251.939C395.974 202.873 356.598 163.098 308.025 163.098C259.452 163.098 220.076 202.873 220.076 251.939Z" fill="url(#paint10_linear_691_2)"/>
<path d="M134.752 187.628C134.752 223.146 163.256 251.939 198.417 251.939C233.578 251.939 262.082 223.146 262.082 187.628C262.082 152.111 233.578 123.318 198.417 123.318C163.256 123.318 134.752 152.111 134.752 187.628Z" fill="url(#paint11_linear_691_2)"/>
<path d="M187.259 170.391C187.259 205.908 215.763 234.701 250.924 234.701C286.085 234.701 314.589 205.908 314.589 170.391C314.589 134.873 286.085 106.08 250.924 106.08C215.763 106.08 187.259 134.873 187.259 170.391Z" fill="url(#paint12_linear_691_2)"/>
<path d="M340.842 218.788C340.842 267.854 301.466 307.63 252.893 307.63C204.32 307.63 164.943 267.854 164.943 218.788C164.943 169.723 204.32 129.947 252.893 129.947C301.466 129.947 340.842 169.723 340.842 218.788Z" fill="url(#paint13_linear_691_2)"/>
<path d="M426.166 154.478C426.166 189.996 397.662 218.788 362.501 218.788C327.34 218.788 298.836 189.996 298.836 154.478C298.836 118.96 327.34 90.1675 362.501 90.1675C397.662 90.1675 426.166 118.96 426.166 154.478Z" fill="url(#paint14_linear_691_2)"/>
<path d="M373.659 137.24C373.659 172.758 345.155 201.551 309.994 201.551C274.833 201.551 246.329 172.758 246.329 137.24C246.329 101.722 274.833 72.9297 309.994 72.9297C345.155 72.9297 373.659 101.722 373.659 137.24Z" fill="url(#paint15_linear_691_2)"/>
<path d="M499.676 270.501C499.676 319.567 460.3 359.342 411.727 359.342C363.154 359.342 323.777 319.567 323.777 270.501C323.777 221.436 363.154 181.66 411.727 181.66C460.3 181.66 499.676 221.436 499.676 270.501Z" fill="url(#paint16_linear_691_2)"/>
<path d="M585 206.191C585 241.709 556.496 270.501 521.335 270.501C486.174 270.501 457.67 241.709 457.67 206.191C457.67 170.673 486.174 141.88 521.335 141.88C556.496 141.88 585 170.673 585 206.191Z" fill="url(#paint17_linear_691_2)"/>
<path d="M532.493 188.953C532.493 224.471 503.989 253.263 468.828 253.263C433.667 253.263 405.163 224.471 405.163 188.953C405.163 153.435 433.667 124.643 468.828 124.643C503.989 124.643 532.493 153.435 532.493 188.953Z" fill="url(#paint18_linear_691_2)"/>
<path d="M200.455 224.826C198.137 224.826 196.49 224.379 195.514 223.484C194.579 222.549 194.111 221.187 194.111 219.397C194.111 218.909 194.131 218.096 194.172 216.957C194.253 215.778 194.355 214.395 194.477 212.809C194.599 211.223 194.721 209.495 194.843 207.624C195.006 205.713 195.168 203.781 195.331 201.829C195.656 197.722 195.88 194.387 196.002 191.825C196.165 189.263 196.287 187.25 196.368 185.786C196.49 183.956 196.612 182.797 196.734 182.309C196.856 181.781 197.12 181.516 197.527 181.516C198.788 181.516 200.069 181.496 201.37 181.455C202.712 181.374 203.993 181.293 205.213 181.211C206.433 181.13 207.572 181.069 208.629 181.028C209.727 180.947 210.703 180.906 211.557 180.906C214.16 180.906 216.396 181.232 218.267 181.882C220.138 182.533 221.642 183.448 222.781 184.627C223.96 185.807 224.814 187.23 225.343 188.897C225.912 190.565 226.197 192.435 226.197 194.509C226.197 197.681 225.567 200.508 224.306 202.988C223.045 205.469 221.032 207.36 218.267 208.661L223.391 215.981C224.326 217.364 225.038 218.442 225.526 219.214C226.014 219.946 226.258 220.495 226.258 220.861C226.258 221.146 226.075 221.553 225.709 222.081C225.384 222.569 224.875 223.078 224.184 223.606C223.533 224.094 222.72 224.521 221.744 224.887C220.809 225.253 219.751 225.436 218.572 225.436C217.271 225.436 216.132 225.009 215.156 224.155C214.221 223.301 213.367 222.183 212.594 220.8C211.862 219.377 211.211 217.75 210.642 215.92C210.113 214.09 209.605 212.179 209.117 210.186C207.653 210.105 206.453 209.963 205.518 209.759C205.396 211.549 205.274 213.257 205.152 214.883C205.03 216.51 204.928 217.974 204.847 219.275C204.766 220.536 204.684 221.593 204.603 222.447C204.522 223.261 204.481 223.749 204.481 223.911C204.44 224.237 204.359 224.481 204.237 224.643C204.115 224.765 203.871 224.826 203.505 224.826H200.455ZM210.337 190.056C209.849 190.056 209.3 190.097 208.69 190.178C208.08 190.219 207.429 190.28 206.738 190.361C206.657 191.785 206.555 193.493 206.433 195.485C206.352 197.437 206.23 199.532 206.067 201.768C207.49 202.094 208.731 202.256 209.788 202.256C211.049 202.256 212.065 202.012 212.838 201.524C213.651 201.036 214.282 200.447 214.729 199.755C215.176 199.023 215.461 198.251 215.583 197.437C215.746 196.624 215.827 195.892 215.827 195.241C215.827 193.574 215.42 192.293 214.607 191.398C213.794 190.504 212.37 190.056 210.337 190.056ZM244.823 225.436C243.034 225.436 241.245 225.213 239.455 224.765C237.707 224.318 236.121 223.545 234.697 222.447C233.315 221.349 232.176 219.885 231.281 218.055C230.387 216.225 229.939 213.928 229.939 211.162C229.939 210.146 230.021 208.926 230.183 207.502C230.346 206.079 230.651 204.615 231.098 203.11C231.586 201.606 232.237 200.121 233.05 198.657C233.904 197.153 235.002 195.811 236.344 194.631C237.686 193.452 239.313 192.496 241.224 191.764C243.136 191.032 245.413 190.666 248.056 190.666C250.171 190.666 251.96 190.91 253.424 191.398C254.888 191.886 256.068 192.557 256.962 193.411C257.857 194.225 258.508 195.18 258.914 196.278C259.321 197.376 259.524 198.556 259.524 199.816C259.524 201.687 259.138 203.273 258.365 204.574C257.633 205.876 256.657 206.974 255.437 207.868C254.258 208.722 252.936 209.393 251.472 209.881C250.008 210.369 248.565 210.756 247.141 211.04C245.718 211.284 244.396 211.447 243.176 211.528C241.997 211.569 241.082 211.589 240.431 211.589C240.431 212.362 240.533 213.135 240.736 213.907C240.98 214.639 241.326 215.29 241.773 215.859C242.221 216.429 242.81 216.896 243.542 217.262C244.274 217.628 245.169 217.811 246.226 217.811C247.284 217.811 248.097 217.649 248.666 217.323C249.276 216.957 249.764 216.571 250.13 216.164C250.496 215.717 250.801 215.331 251.045 215.005C251.33 214.639 251.696 214.456 252.143 214.456C252.347 214.456 252.692 214.517 253.18 214.639C253.709 214.721 254.238 214.924 254.766 215.249C255.295 215.575 255.763 216.022 256.169 216.591C256.576 217.161 256.779 217.893 256.779 218.787C256.779 219.967 256.413 220.983 255.681 221.837C254.949 222.691 253.994 223.383 252.814 223.911C251.676 224.44 250.395 224.826 248.971 225.07C247.548 225.314 246.165 225.436 244.823 225.436ZM245.982 198.779C245.088 198.779 244.315 199.044 243.664 199.572C243.054 200.06 242.526 200.691 242.078 201.463C241.672 202.236 241.346 203.09 241.102 204.025C240.899 204.961 240.736 205.855 240.614 206.709C243.136 206.669 245.169 206.242 246.714 205.428C248.3 204.615 249.093 203.456 249.093 201.951C249.093 201.138 248.829 200.406 248.3 199.755C247.812 199.105 247.04 198.779 245.982 198.779ZM261.368 217.323C261.368 213.663 263.015 210.796 266.309 208.722C269.603 206.648 274.463 205.53 280.888 205.367C280.929 204.92 280.949 204.554 280.949 204.269C280.99 203.944 281.01 203.558 281.01 203.11C281.01 201.809 280.766 200.772 280.278 199.999C279.79 199.227 278.774 198.84 277.228 198.84C276.374 198.84 275.683 198.962 275.154 199.206C274.626 199.45 274.199 199.796 273.873 200.243C273.548 200.65 273.284 201.158 273.08 201.768C272.877 202.378 272.694 203.049 272.531 203.781C272.45 204.147 272.267 204.391 271.982 204.513C271.698 204.595 271.25 204.635 270.64 204.635C266.492 204.635 264.418 203.07 264.418 199.938C264.418 198.678 264.703 197.478 265.272 196.339C265.882 195.201 266.757 194.225 267.895 193.411C269.075 192.557 270.539 191.886 272.287 191.398C274.036 190.91 276.069 190.666 278.387 190.666C282.901 190.666 286.175 191.602 288.208 193.472C290.242 195.343 291.258 197.986 291.258 201.402C291.258 201.85 291.197 202.663 291.075 203.842C290.994 204.981 290.872 206.201 290.709 207.502C290.587 208.763 290.465 209.963 290.343 211.101C290.262 212.24 290.221 213.033 290.221 213.48C290.221 214.497 290.404 215.229 290.77 215.676C291.136 216.083 291.543 216.368 291.99 216.53C292.478 216.693 292.905 216.815 293.271 216.896C293.637 216.978 293.82 217.181 293.82 217.506C293.82 218.401 293.698 219.316 293.454 220.251C293.21 221.187 292.804 222.041 292.234 222.813C291.706 223.586 290.953 224.216 289.977 224.704C289.042 225.192 287.883 225.436 286.5 225.436C284.548 225.436 283.084 224.969 282.108 224.033C281.132 223.098 280.482 221.797 280.156 220.129C279.18 221.553 277.899 222.793 276.313 223.85C274.768 224.908 272.735 225.436 270.213 225.436C268.993 225.436 267.834 225.294 266.736 225.009C265.679 224.725 264.744 224.257 263.93 223.606C263.158 222.956 262.527 222.122 262.039 221.105C261.592 220.048 261.368 218.787 261.368 217.323ZM280.339 210.369C279.282 210.369 278.245 210.451 277.228 210.613C276.212 210.776 275.297 211.04 274.483 211.406C273.711 211.732 273.08 212.179 272.592 212.748C272.104 213.318 271.86 214.009 271.86 214.822C271.86 215.758 272.145 216.408 272.714 216.774C273.324 217.14 273.975 217.323 274.666 217.323C275.317 217.323 275.968 217.181 276.618 216.896C277.269 216.612 277.838 216.185 278.326 215.615C278.855 215.005 279.302 214.273 279.668 213.419C280.034 212.565 280.258 211.549 280.339 210.369ZM312.942 217.323C314.122 217.323 315.138 217.161 315.992 216.835C316.887 216.51 317.66 216.144 318.31 215.737C318.961 215.331 319.51 214.965 319.957 214.639C320.405 214.314 320.811 214.151 321.177 214.151C322.113 214.151 322.58 214.761 322.58 215.981C322.58 216.266 322.519 216.673 322.397 217.201C322.275 217.689 322.113 218.218 321.909 218.787C321.706 219.316 321.482 219.824 321.238 220.312C321.035 220.8 320.832 221.166 320.628 221.41C320.425 221.614 320.059 221.939 319.53 222.386C319.042 222.834 318.371 223.281 317.517 223.728C316.663 224.176 315.667 224.562 314.528 224.887C313.39 225.253 312.129 225.436 310.746 225.436C309.201 225.436 307.595 225.213 305.927 224.765C304.301 224.277 302.816 223.464 301.474 222.325C300.132 221.146 299.014 219.58 298.119 217.628C297.265 215.636 296.838 213.155 296.838 210.186C296.838 209.129 296.899 207.929 297.021 206.587C297.184 205.205 297.489 203.802 297.936 202.378C298.384 200.914 298.973 199.491 299.705 198.108C300.478 196.685 301.495 195.424 302.755 194.326C304.016 193.228 305.521 192.354 307.269 191.703C309.059 191.012 311.173 190.666 313.613 190.666C315.606 190.666 317.314 190.91 318.737 191.398C320.201 191.846 321.401 192.476 322.336 193.289C323.272 194.062 323.963 194.977 324.41 196.034C324.898 197.092 325.142 198.23 325.142 199.45C325.142 201.646 324.451 203.273 323.068 204.33C321.686 205.347 319.734 205.855 317.212 205.855C316.602 205.855 316.175 205.815 315.931 205.733C315.728 205.611 315.626 205.367 315.626 205.001C315.626 204.025 315.606 203.151 315.565 202.378C315.525 201.606 315.403 200.955 315.199 200.426C315.037 199.898 314.772 199.491 314.406 199.206C314.04 198.922 313.512 198.779 312.82 198.779C311.56 198.779 310.543 199.186 309.77 199.999C309.038 200.813 308.469 201.809 308.062 202.988C307.696 204.127 307.452 205.306 307.33 206.526C307.249 207.746 307.208 208.763 307.208 209.576C307.208 212.464 307.656 214.477 308.55 215.615C309.486 216.754 310.95 217.323 312.942 217.323ZM348.799 217.262C348.921 215.92 349.043 214.517 349.165 213.053C349.328 211.589 349.45 210.186 349.531 208.844C349.653 207.502 349.755 206.303 349.836 205.245C349.917 204.188 349.958 203.415 349.958 202.927C349.958 201.87 349.694 200.935 349.165 200.121C348.677 199.267 347.701 198.84 346.237 198.84C344.285 198.84 342.699 199.755 341.479 201.585C340.3 203.415 339.608 205.855 339.405 208.905C339.324 209.759 339.222 210.959 339.1 212.504C338.978 214.009 338.856 215.554 338.734 217.14C338.612 218.686 338.49 220.089 338.368 221.349C338.287 222.569 338.246 223.322 338.246 223.606C338.246 224.094 338.144 224.42 337.941 224.582C337.778 224.745 337.433 224.826 336.904 224.826H334.708C333.447 224.826 332.41 224.704 331.597 224.46C330.824 224.176 330.194 223.789 329.706 223.301C329.259 222.813 328.933 222.224 328.73 221.532C328.567 220.8 328.486 219.967 328.486 219.031C328.486 218.137 328.547 216.896 328.669 215.31C328.832 213.684 329.035 211.467 329.279 208.661C329.523 205.815 329.808 202.195 330.133 197.803C330.458 193.411 330.804 187.962 331.17 181.455C331.211 180.561 331.312 180.032 331.475 179.869C331.597 179.747 331.922 179.686 332.451 179.686H334.83C336.05 179.686 337.067 179.829 337.88 180.113C338.693 180.398 339.344 180.784 339.832 181.272C340.32 181.76 340.666 182.33 340.869 182.98C341.072 183.59 341.174 184.241 341.174 184.932C341.174 185.664 341.093 187.027 340.93 189.019C340.808 191.012 340.645 193.35 340.442 196.034C341.662 194.001 343.004 192.598 344.468 191.825C345.973 191.053 347.864 190.666 350.141 190.666C351.849 190.666 353.333 190.849 354.594 191.215C355.855 191.581 356.892 192.212 357.705 193.106C358.559 193.96 359.189 195.099 359.596 196.522C360.003 197.905 360.206 199.633 360.206 201.707C360.206 202.358 360.145 203.476 360.023 205.062C359.901 206.648 359.738 208.458 359.535 210.491C359.372 212.525 359.189 214.66 358.986 216.896C358.823 219.092 358.681 221.105 358.559 222.935C358.518 223.383 358.478 223.728 358.437 223.972C358.396 224.216 358.315 224.399 358.193 224.521C358.112 224.643 357.969 224.725 357.766 224.765C357.563 224.806 357.278 224.826 356.912 224.826H354.96C353.659 224.826 352.601 224.704 351.788 224.46C350.975 224.216 350.344 223.871 349.897 223.423C349.45 222.976 349.124 222.427 348.921 221.776C348.758 221.085 348.677 220.312 348.677 219.458C348.677 219.052 348.677 218.665 348.677 218.299C348.718 217.933 348.758 217.588 348.799 217.262ZM390.416 196.461C390.416 197.315 390.334 198.515 390.172 200.06C390.05 201.606 389.907 203.212 389.745 204.879C389.623 206.547 389.48 208.112 389.318 209.576C389.196 211.04 389.135 212.098 389.135 212.748C389.135 214.172 389.48 215.29 390.172 216.103C390.904 216.876 391.9 217.262 393.161 217.262C394.259 217.262 395.174 216.835 395.906 215.981C396.678 215.087 397.288 213.948 397.736 212.565C398.224 211.142 398.61 209.536 398.895 207.746C399.179 205.957 399.383 204.147 399.505 202.317C399.667 200.487 399.789 198.718 399.871 197.01C399.993 195.262 400.115 193.757 400.237 192.496C400.277 192.171 400.399 191.886 400.603 191.642C400.806 191.398 401.131 191.276 401.579 191.276H403.775C405.035 191.276 406.052 191.419 406.825 191.703C407.638 191.947 408.268 192.313 408.716 192.801C409.204 193.289 409.529 193.899 409.692 194.631C409.895 195.323 409.997 196.136 409.997 197.071C409.997 197.681 409.956 198.556 409.875 199.694C409.834 200.792 409.732 202.338 409.57 204.33C409.407 206.282 409.204 208.783 408.96 211.833C408.756 214.843 408.492 218.584 408.167 223.057C408.085 223.911 407.984 224.42 407.862 224.582C407.78 224.745 407.455 224.826 406.886 224.826H404.507C403.287 224.826 402.27 224.684 401.457 224.399C400.684 224.115 400.054 223.749 399.566 223.301C399.078 222.854 398.732 222.325 398.529 221.715C398.325 221.105 398.203 220.475 398.163 219.824C397.553 220.882 396.861 221.776 396.089 222.508C395.357 223.24 394.584 223.83 393.771 224.277C392.957 224.684 392.124 224.969 391.27 225.131C390.416 225.335 389.582 225.436 388.769 225.436C387.223 225.436 385.841 225.192 384.621 224.704C383.401 224.176 382.364 223.484 381.51 222.63C380.696 221.776 380.066 220.76 379.619 219.58C379.171 218.401 378.948 217.14 378.948 215.798C378.948 215.27 378.968 214.416 379.009 213.236C379.09 212.016 379.171 210.654 379.253 209.149C379.375 207.645 379.497 206.059 379.619 204.391C379.741 202.683 379.842 201.077 379.924 199.572C380.046 198.068 380.147 196.746 380.229 195.607C380.351 194.469 380.432 193.655 380.473 193.167C380.554 192.435 380.717 191.947 380.961 191.703C381.205 191.419 381.611 191.276 382.181 191.276H384.133C385.393 191.276 386.43 191.398 387.244 191.642C388.057 191.886 388.687 192.232 389.135 192.679C389.623 193.127 389.948 193.676 390.111 194.326C390.314 194.936 390.416 195.648 390.416 196.461ZM429.554 190.666C433.011 190.666 435.552 191.358 437.179 192.74C438.806 194.082 439.619 195.811 439.619 197.925C439.619 199.715 439.05 201.077 437.911 202.012C436.813 202.948 435.207 203.415 433.092 203.415C432.523 203.415 432.136 203.354 431.933 203.232C431.73 203.11 431.628 202.887 431.628 202.561C431.628 202.195 431.587 201.789 431.506 201.341C431.465 200.853 431.323 200.406 431.079 199.999C430.876 199.552 430.53 199.186 430.042 198.901C429.595 198.617 428.944 198.474 428.09 198.474C426.951 198.474 426.036 198.759 425.345 199.328C424.654 199.857 424.308 200.528 424.308 201.341C424.308 202.195 424.654 202.887 425.345 203.415C426.077 203.903 426.972 204.371 428.029 204.818C429.127 205.266 430.306 205.733 431.567 206.221C432.828 206.669 433.987 207.279 435.044 208.051C436.142 208.824 437.037 209.8 437.728 210.979C438.46 212.118 438.826 213.602 438.826 215.432C438.826 218.36 437.789 220.76 435.715 222.63C433.641 224.501 430.53 225.436 426.382 225.436C425.243 225.436 423.922 225.335 422.417 225.131C420.953 224.969 419.55 224.704 418.208 224.338C416.866 223.932 415.727 223.403 414.792 222.752C413.897 222.102 413.45 221.288 413.45 220.312C413.45 219.946 413.511 219.499 413.633 218.97C413.796 218.442 414.019 217.933 414.304 217.445C414.629 216.957 414.995 216.551 415.402 216.225C415.849 215.859 416.378 215.676 416.988 215.676C417.476 215.676 417.923 215.798 418.33 216.042C418.737 216.286 419.204 216.551 419.733 216.835C420.302 217.079 420.994 217.323 421.807 217.567C422.62 217.811 423.698 217.933 425.04 217.933C426.057 217.933 426.951 217.811 427.724 217.567C428.537 217.323 428.944 216.774 428.944 215.92C428.944 215.148 428.619 214.538 427.968 214.09C427.317 213.602 426.484 213.155 425.467 212.748C424.491 212.342 423.413 211.915 422.234 211.467C421.095 210.979 420.018 210.349 419.001 209.576C418.025 208.804 417.212 207.828 416.561 206.648C415.91 205.428 415.585 203.863 415.585 201.951C415.585 199.877 415.992 198.129 416.805 196.705C417.659 195.241 418.737 194.062 420.038 193.167C421.38 192.273 422.885 191.642 424.552 191.276C426.219 190.87 427.887 190.666 429.554 190.666ZM449.24 213.968C450.948 213.968 452.168 214.395 452.9 215.249C453.632 216.063 453.998 217.222 453.998 218.726C453.998 219.377 453.917 220.089 453.754 220.861C453.591 221.634 453.286 222.366 452.839 223.057C452.432 223.708 451.822 224.277 451.009 224.765C450.236 225.213 449.22 225.436 447.959 225.436C446.129 225.436 444.889 224.969 444.238 224.033C443.587 223.057 443.262 221.858 443.262 220.434C443.262 219.621 443.364 218.828 443.567 218.055C443.77 217.283 444.096 216.591 444.543 215.981C444.99 215.371 445.6 214.883 446.373 214.517C447.146 214.151 448.101 213.968 449.24 213.968ZM450.582 209.698C449.565 209.698 448.732 209.576 448.081 209.332C447.43 209.088 446.922 208.722 446.556 208.234C446.19 207.706 445.926 207.075 445.763 206.343C445.641 205.571 445.58 204.696 445.58 203.72C445.58 203.354 445.58 202.968 445.58 202.561C445.621 202.114 445.661 201.565 445.702 200.914C445.783 200.264 445.844 199.45 445.885 198.474C445.966 197.498 446.068 196.258 446.19 194.753C446.312 193.208 446.454 191.358 446.617 189.202C446.78 187.047 446.963 184.465 447.166 181.455C447.207 180.561 447.308 180.032 447.471 179.869C447.593 179.747 447.918 179.686 448.447 179.686H452.046C454.283 179.686 455.869 180.134 456.804 181.028C457.78 181.882 458.268 182.899 458.268 184.078C458.268 184.81 458.187 185.786 458.024 187.006C457.902 188.186 457.719 189.507 457.475 190.971C457.231 192.435 456.946 193.981 456.621 195.607C456.336 197.193 456.031 198.779 455.706 200.365C455.421 201.911 455.137 203.395 454.852 204.818C454.567 206.242 454.323 207.462 454.12 208.478C454.039 208.966 453.896 209.292 453.693 209.454C453.53 209.617 453.225 209.698 452.778 209.698H450.582Z" fill="#014542"/>
<defs>
<linearGradient id="paint0_linear_691_2" x1="544.752" y1="550.5" x2="88.752" y2="706.5" gradientUnits="userSpaceOnUse">
<stop stop-color="#439CC1"/>
<stop offset="1" stop-color="#42BD75"/>
</linearGradient>
<linearGradient id="paint1_linear_691_2" x1="554.252" y1="562" x2="324.984" y2="771.397" gradientUnits="userSpaceOnUse">
<stop stop-color="#5EB6D9"/>
<stop offset="1" stop-color="#41BC74"/>
</linearGradient>
<linearGradient id="paint2_linear_691_2" x1="550.5" y1="548.319" x2="434.805" y2="666.854" gradientUnits="userSpaceOnUse">
<stop stop-color="#48AFDB"/>
<stop offset="1" stop-opacity="0"/>
</linearGradient>
<linearGradient id="paint3_linear_691_2" x1="552" y1="546.297" x2="348.269" y2="640.682" gradientUnits="userSpaceOnUse">
<stop stop-color="#48AFDB"/>
<stop offset="1" stop-opacity="0"/>
</linearGradient>
<linearGradient id="paint4_linear_691_2" x1="425.51" y1="0" x2="425.51" y2="234.7" gradientUnits="userSpaceOnUse">
<stop stop-color="white"/>
<stop offset="1" stop-color="#18BC59"/>
</linearGradient>
<linearGradient id="paint5_linear_691_2" x1="425.51" y1="0" x2="425.51" y2="234.7" gradientUnits="userSpaceOnUse">
<stop stop-color="white"/>
<stop offset="1" stop-color="#18BC59"/>
</linearGradient>
<linearGradient id="paint6_linear_691_2" x1="425.51" y1="0" x2="425.51" y2="234.7" gradientUnits="userSpaceOnUse">
<stop stop-color="white"/>
<stop offset="1" stop-color="#18BC59"/>
</linearGradient>
<linearGradient id="paint7_linear_691_2" x1="249.611" y1="148.51" x2="249.611" y2="383.21" gradientUnits="userSpaceOnUse">
<stop stop-color="white"/>
<stop offset="1" stop-color="#18BC59"/>
</linearGradient>
<linearGradient id="paint8_linear_691_2" x1="249.611" y1="148.51" x2="249.611" y2="383.21" gradientUnits="userSpaceOnUse">
<stop stop-color="white"/>
<stop offset="1" stop-color="#18BC59"/>
</linearGradient>
<linearGradient id="paint9_linear_691_2" x1="249.611" y1="148.51" x2="249.611" y2="383.21" gradientUnits="userSpaceOnUse">
<stop stop-color="white"/>
<stop offset="1" stop-color="#18BC59"/>
</linearGradient>
<linearGradient id="paint10_linear_691_2" x1="265.363" y1="106.08" x2="265.363" y2="340.78" gradientUnits="userSpaceOnUse">
<stop stop-color="white"/>
<stop offset="1" stop-color="#18BC59"/>
</linearGradient>
<linearGradient id="paint11_linear_691_2" x1="265.363" y1="106.08" x2="265.363" y2="340.78" gradientUnits="userSpaceOnUse">
<stop stop-color="white"/>
<stop offset="1" stop-color="#18BC59"/>
</linearGradient>
<linearGradient id="paint12_linear_691_2" x1="265.363" y1="106.08" x2="265.363" y2="340.78" gradientUnits="userSpaceOnUse">
<stop stop-color="white"/>
<stop offset="1" stop-color="#18BC59"/>
</linearGradient>
<linearGradient id="paint13_linear_691_2" x1="295.555" y1="72.9297" x2="295.555" y2="307.63" gradientUnits="userSpaceOnUse">
<stop stop-color="white"/>
<stop offset="1" stop-color="#18BC59"/>
</linearGradient>
<linearGradient id="paint14_linear_691_2" x1="295.555" y1="72.9297" x2="295.555" y2="307.63" gradientUnits="userSpaceOnUse">
<stop stop-color="white"/>
<stop offset="1" stop-color="#18BC59"/>
</linearGradient>
<linearGradient id="paint15_linear_691_2" x1="295.555" y1="72.9297" x2="295.555" y2="307.63" gradientUnits="userSpaceOnUse">
<stop stop-color="white"/>
<stop offset="1" stop-color="#18BC59"/>
</linearGradient>
<linearGradient id="paint16_linear_691_2" x1="454.389" y1="124.643" x2="454.389" y2="359.343" gradientUnits="userSpaceOnUse">
<stop stop-color="white"/>
<stop offset="1" stop-color="#18BC59"/>
</linearGradient>
<linearGradient id="paint17_linear_691_2" x1="454.389" y1="124.643" x2="454.389" y2="359.343" gradientUnits="userSpaceOnUse">
<stop stop-color="white"/>
<stop offset="1" stop-color="#18BC59"/>
</linearGradient>
<linearGradient id="paint18_linear_691_2" x1="454.389" y1="124.643" x2="454.389" y2="359.343" gradientUnits="userSpaceOnUse">
<stop stop-color="white"/>
<stop offset="1" stop-color="#18BC59"/>
</linearGradient>
</defs>
</svg>
