<svg width="1547" height="1127" viewBox="0 0 1547 1127" fill="none" xmlns="http://www.w3.org/2000/svg">
<style>
#rocket1{
    animation: wave 5s linear 0s infinite normal forwards;
}
#rocket2{
    animation: wave 8s linear 0s infinite reverse forwards;
}
#rocket3{
    animation: wave 5s linear 0s infinite alternate forwards;
}
#rocket4{
    animation: wave 8s linear 0s infinite normal forwards;
}
 
@keyframes wave {
        0%{
            transform:translateY(20px)
        }
     50%{
       transform:translateY(0px)
     }
     100%{
       transform:translateY(20px)
     }
}
</style>
<g id="rockets">
<g id="rocket3">
<g id="Group 3">
<path id="Ellipse 1" d="M1486.03 759.604C1486.03 951.443 1418.73 703.81 1335.71 703.81C1252.69 703.81 1185.38 951.443 1185.38 759.604C1185.38 567.766 1252.69 412.25 1335.71 412.25C1418.73 412.25 1486.03 567.766 1486.03 759.604Z" fill="#1E7D78"/>
<g id="Ellipse 2" filter="url(#filter0_d_683_22)">
<ellipse cx="1335.26" cy="576.397" rx="58.9596" ry="66.1643" fill="url(#paint0_linear_683_22)" shape-rendering="crispEdges"/>
</g>
<path id="Vector 4" d="M1294.75 573.871C1296.25 560.571 1306.54 533.466 1335.71 531.445C1327.91 533.634 1308.79 545.183 1294.75 573.871Z" fill="white"/>
<path id="Vector 5" d="M1396.47 741.556C1371.38 715.55 1366.88 712.52 1344.38 704.439L1295.2 625.39C1307.8 635.491 1327.61 649.953 1356.41 638.382C1400.07 620.844 1407 554.016 1372.16 524.881L1466.23 586.499C1471.63 599.126 1479.73 656.199 1482.43 685.998C1485.67 703.777 1485.88 759.402 1485.58 784.992L1440.58 801.155C1438.42 797.114 1410.27 759.739 1396.47 741.556Z" fill="url(#paint1_linear_683_22)"/>
<path id="Vector 7" d="M1422.98 801.896L1458.83 662.882C1499.44 690.601 1513.96 877.708 1505.72 866.072C1499.13 856.762 1447.81 819.409 1422.98 801.896Z" fill="#014525"/>
<path id="Vector 8" d="M1255.36 802.1L1219.51 663.085C1178.9 690.804 1164.37 877.911 1172.61 866.275C1179.2 856.965 1230.52 819.612 1255.36 802.1Z" fill="url(#paint2_linear_683_22)"/>
<path id="Vector 9" d="M1255.59 802.163L1233.09 714.786C1208.02 731.898 1195.24 847.153 1203.55 840.58C1208.9 836.352 1240.26 812.975 1255.59 802.163Z" fill="#4AD882"/>
<path id="Vector 10" d="M1423.02 802.163L1445.07 715.291C1470.14 732.403 1483.63 847.524 1475.32 840.95C1469.97 836.722 1438.35 812.974 1423.02 802.163Z" fill="#4AD882"/>
<path id="Rectangle 5" d="M1327.13 378.606C1332.35 374.28 1339.35 374.238 1344.6 378.523C1371.73 400.661 1414.07 446.626 1425.27 470.837C1425.57 471.475 1425.84 472.144 1426.1 472.83C1428.81 480.066 1423.51 484.004 1417.97 479.206C1399.03 462.785 1361.93 419.826 1335.84 419.826C1308.01 419.826 1264.8 468.683 1248.83 482.107C1245.59 484.827 1242.12 483.206 1242.62 478.705C1242.92 476.103 1243.63 473.213 1244.79 470.837C1255.86 448.165 1300.22 400.895 1327.13 378.606Z" fill="url(#paint3_linear_683_22)"/>
</g>
<path id="Vector 11" d="M1247.05 473.363C1268.8 439.422 1316.18 390.026 1340.14 374.369V381.945C1315.72 396.592 1269.78 450.635 1251.2 473.363C1245.67 477.404 1246.13 475.047 1247.05 473.363Z" fill="url(#paint4_linear_683_22)"/>
<g id="Group 4">
<path id="Ellipse 3" d="M1372.25 808.308C1372.25 878.847 1367.89 942.664 1360.85 988.808C1357.33 1011.9 1353.15 1030.47 1348.55 1043.23C1346.25 1049.62 1343.88 1054.43 1341.51 1057.61C1339.1 1060.84 1336.99 1062 1335.25 1062C1333.51 1062 1331.4 1060.84 1329 1057.61C1326.63 1054.43 1324.26 1049.62 1321.95 1043.23C1317.35 1030.47 1313.17 1011.9 1309.65 988.808C1302.61 942.664 1298.25 878.847 1298.25 808.308C1298.25 797.137 1298.37 789.21 1298.61 783.737C1298.71 781.415 1298.82 779.576 1298.95 778.142C1299.06 778.419 1299.16 778.707 1299.27 779.004C1299.37 779.263 1299.46 779.53 1299.57 779.803C1300.36 781.958 1301.3 784.426 1302.35 786.25C1302.87 787.148 1303.51 788.072 1304.32 788.711C1305.19 789.401 1306.46 789.894 1307.87 789.335C1309.07 788.86 1309.91 787.781 1310.54 786.634C1311.21 785.426 1311.83 783.79 1312.44 781.696C1313.66 777.498 1314.9 771.125 1316.16 761.862C1317.4 752.805 1318.51 747.265 1319.49 744.4C1319.67 744.966 1319.87 745.653 1320.07 746.469C1320.49 748.184 1320.9 750.328 1321.31 752.827C1322.14 757.824 1322.92 764.13 1323.7 771.048C1324.31 776.516 1324.92 782.375 1325.52 788.248C1326.44 797.168 1327.37 806.119 1328.32 813.777C1329.12 820.134 1329.95 825.696 1330.84 829.69C1331.28 831.672 1331.76 833.371 1332.3 834.613C1332.57 835.225 1332.9 835.844 1333.32 836.34C1333.73 836.819 1334.48 837.458 1335.57 837.458C1336.66 837.458 1337.4 836.813 1337.81 836.337C1338.24 835.839 1338.57 835.219 1338.84 834.603C1339.39 833.354 1339.88 831.641 1340.34 829.641C1341.26 825.61 1342.14 819.996 1342.98 813.578C1344.05 805.43 1345.08 795.848 1346.11 786.374C1346.7 780.926 1347.28 775.515 1347.87 770.432C1348.67 763.447 1349.48 757.076 1350.3 752.026C1350.71 749.5 1351.12 747.33 1351.53 745.591C1351.66 745.005 1351.8 744.482 1351.93 744.022C1352.76 747.066 1353.68 752.531 1354.65 761.108C1355.72 770.458 1356.8 776.902 1357.9 781.161C1358.44 783.286 1359.01 784.946 1359.63 786.178C1360.2 787.339 1360.98 788.455 1362.13 788.99C1363.52 789.639 1364.82 789.178 1365.71 788.497C1366.51 787.877 1367.16 786.965 1367.67 786.09C1368.72 784.306 1369.67 781.868 1370.5 779.742L1370.65 779.349C1370.91 778.674 1371.15 778.041 1371.38 777.464C1371.56 779.02 1371.72 781.081 1371.85 783.747C1372.11 789.216 1372.25 797.139 1372.25 808.308ZM1351.03 741.653C1351.03 741.653 1351.04 741.655 1351.04 741.661C1351.04 741.656 1351.03 741.653 1351.03 741.653Z" fill="url(#paint5_linear_683_22)" stroke="white" stroke-width="4"/>
<path id="Vector 12" d="M1226.39 903.559L1224.85 902.867L1223.91 904.277C1214.46 918.493 1206.65 929.385 1200.26 937.445C1193.85 945.532 1188.94 950.676 1185.31 953.481C1183.49 954.89 1182.12 955.607 1181.14 955.875C1180.22 956.128 1179.84 955.946 1179.65 955.799C1179.36 955.58 1178.94 955.018 1178.64 953.727C1178.34 952.469 1178.21 950.762 1178.27 948.605C1178.5 939.919 1181.77 925.645 1186.52 909.444C1189.47 899.387 1192.97 888.669 1196.61 878.221C1196.3 882.32 1196.37 885.466 1196.81 887.736C1197.26 890.055 1198.3 892.376 1200.7 892.849C1201.8 893.067 1202.85 892.795 1203.75 892.378C1204.65 891.958 1205.54 891.321 1206.4 890.574C1209.76 887.641 1213.79 881.978 1217.72 875.575C1219.47 872.732 1221.23 869.701 1222.94 866.627C1223.05 867.37 1223.26 868.047 1223.58 868.638C1224.03 869.458 1224.69 870.102 1225.56 870.476C1226.4 870.837 1227.28 870.884 1228.09 870.784C1229.65 870.59 1231.35 869.794 1233.02 868.781C1238.51 865.431 1245.92 858.18 1252.06 851.467C1250.91 876.426 1246.29 890.283 1241.14 897.476C1238.4 901.293 1235.57 903.17 1233.07 903.93C1230.56 904.692 1228.23 904.383 1226.39 903.559Z" fill="url(#paint6_linear_683_22)" stroke="white" stroke-width="4"/>
<path id="Vector 13" d="M1463.11 903.559L1464.66 902.867L1465.6 904.277C1475.05 918.493 1482.86 929.385 1489.25 937.445C1495.66 945.532 1500.56 950.676 1504.19 953.481C1506.01 954.89 1507.39 955.607 1508.36 955.875C1509.28 956.128 1509.66 955.946 1509.85 955.799C1510.14 955.58 1510.56 955.018 1510.87 953.727C1511.16 952.469 1511.3 950.762 1511.24 948.605C1511 939.919 1507.74 925.645 1502.98 909.444C1500.03 899.387 1496.53 888.669 1492.9 878.221C1493.2 882.32 1493.13 885.466 1492.69 887.736C1492.24 890.055 1491.21 892.376 1488.81 892.849C1487.71 893.067 1486.65 892.795 1485.75 892.378C1484.85 891.958 1483.96 891.321 1483.11 890.574C1479.74 887.641 1475.72 881.978 1471.78 875.575C1470.03 872.732 1468.27 869.701 1466.57 866.627C1466.46 867.37 1466.25 868.047 1465.92 868.638C1465.48 869.458 1464.81 870.102 1463.94 870.476C1463.11 870.837 1462.23 870.884 1461.42 870.784C1459.85 870.59 1458.15 869.794 1456.49 868.781C1450.99 865.431 1443.58 858.18 1437.44 851.467C1438.6 876.426 1443.22 890.283 1448.37 897.476C1451.1 901.293 1453.93 903.17 1456.44 903.93C1458.94 904.692 1461.28 904.383 1463.11 903.559Z" fill="url(#paint7_linear_683_22)" stroke="white" stroke-width="4"/>
</g>
</g>
<g id="rocket1" opacity="0.69">
<g id="Group 3_2">
<path id="Ellipse 1_2" d="M144.507 290.725C144.507 371.169 115.607 267.329 79.9583 267.329C44.3094 267.329 15.4102 371.169 15.4102 290.725C15.4102 210.282 44.3094 145.07 79.9583 145.07C115.607 145.07 144.507 210.282 144.507 290.725Z" fill="#1E7D78"/>
<g id="Ellipse 2_2" filter="url(#filter1_d_683_22)">
<ellipse cx="79.765" cy="213.903" rx="25.3168" ry="27.7445" fill="url(#paint8_linear_683_22)" shape-rendering="crispEdges"/>
</g>
<path id="Vector 4_2" d="M62.3721 212.843C63.0163 207.266 67.4354 195.9 79.9585 195.053C76.6087 195.97 68.4017 200.813 62.3721 212.843Z" fill="white"/>
<path id="Vector 5_2" d="M106.048 283.159C95.2762 272.254 93.3436 270.983 83.6807 267.594L62.5654 234.447C67.9767 238.683 76.48 244.747 88.8485 239.895C107.595 232.541 110.571 204.518 95.6125 192.301L136.003 218.139C138.323 223.434 141.801 247.366 142.961 259.862C144.352 267.317 144.442 290.642 144.314 301.373L124.988 308.15C124.06 306.456 111.975 290.783 106.048 283.159Z" fill="url(#paint9_linear_683_22)" fill-opacity="0.27"/>
<path id="Vector 7_2" d="M117.431 308.46L132.825 250.168C150.262 261.791 156.499 340.25 152.961 335.37C150.131 331.467 128.095 315.804 117.431 308.46Z" fill="#014525"/>
<path id="Vector 8_2" d="M45.457 308.546L30.0624 250.253C12.6257 261.877 6.38891 340.336 9.92671 335.456C12.757 331.553 34.7928 315.89 45.457 308.546Z" fill="url(#paint10_linear_683_22)"/>
<path id="Vector 9_2" d="M45.5588 308.573L35.8959 271.934C25.1314 279.109 19.6427 327.439 23.2125 324.682C25.5085 322.91 38.9753 313.107 45.5588 308.573Z" fill="#4AD882"/>
<path id="Vector 10_2" d="M117.451 308.572L126.921 272.144C137.685 279.32 143.477 327.593 139.907 324.837C137.611 323.064 124.035 313.106 117.451 308.572Z" fill="#4AD882"/>
<path id="Rectangle 5_2" d="M71.3807 135.143C76.4806 130.589 83.5802 130.54 88.6875 135.084C99.9937 145.142 114.242 160.826 118.417 169.638V169.638C120.034 173.053 117.367 174.977 114.622 172.58C106.311 165.324 90.9244 148.248 80.0144 148.248C69.297 148.248 53.2678 164.726 45.1282 172.187C42.2284 174.845 39.1047 173.272 40.9203 169.638V169.638C45.0463 161.38 59.9597 145.34 71.3807 135.143Z" fill="url(#paint11_linear_683_22)"/>
</g>
<path id="Vector 11_2" d="M41.2285 171.162C50.0543 158.421 69.2767 139.878 79 134V136.844C69.0897 142.343 50.4533 162.63 42.9114 171.162C40.6676 172.679 40.8546 171.794 41.2285 171.162Z" fill="url(#paint12_linear_683_22)"/>
<g id="Group 4_2">
<path id="Ellipse 3_2" d="M101.536 311.4C101.536 340.93 98.883 367.604 94.6212 386.842C92.4867 396.478 89.9719 404.139 87.2463 409.343C85.8824 411.947 84.5159 413.837 83.199 415.054C81.8926 416.261 80.7523 416.703 79.7654 416.703C78.7785 416.703 77.6382 416.261 76.3318 415.054C75.0149 413.837 73.6483 411.947 72.2845 409.343C69.5589 404.139 67.0441 396.478 64.9096 386.842C60.6478 367.604 57.9947 340.93 57.9947 311.4C57.9947 306.944 58.0626 303.746 58.1893 301.506C58.5058 302.031 58.8564 302.556 59.2347 303.008C59.86 303.755 61.2394 305.11 63.1537 304.587C64.0302 304.347 64.6965 303.773 65.1959 303.15C65.6982 302.523 66.1351 301.72 66.5335 300.776C67.3305 298.887 68.1075 296.104 68.8835 292.183C69.3423 289.865 69.7632 288.158 70.1366 286.948C70.2654 287.395 70.3958 287.895 70.5275 288.446C71.0163 290.491 71.4898 293.096 71.9606 295.991C72.3273 298.245 72.6936 300.689 73.0625 303.149C73.6274 306.916 74.1981 310.722 74.7846 313.949C75.2712 316.626 75.7906 319.037 76.364 320.807C76.6462 321.678 76.979 322.514 77.3925 323.171C77.7211 323.693 78.5316 324.794 79.9571 324.794C81.3829 324.794 82.197 323.688 82.5255 323.171C82.9434 322.514 83.2845 321.674 83.5765 320.796C84.1695 319.013 84.716 316.581 85.2313 313.877C85.8867 310.439 86.5254 306.371 87.1525 302.375C87.5103 300.096 87.8644 297.84 88.2157 295.739C88.7048 292.814 89.1895 290.178 89.6783 288.105C89.7569 287.772 89.8349 287.456 89.9122 287.159C90.1959 288.328 90.5031 289.86 90.8278 291.823C91.4819 295.779 92.1599 298.587 92.8751 300.499C93.2322 301.454 93.6289 302.269 94.0926 302.91C94.5501 303.544 95.1821 304.158 96.0511 304.436C97.9805 305.055 99.3956 303.651 99.9945 302.948C100.466 302.395 100.902 301.723 101.284 301.081C101.287 301.118 101.289 301.155 101.292 301.192C101.449 303.437 101.536 306.723 101.536 311.4ZM90.9133 284.35C90.9132 284.35 90.9107 284.353 90.9055 284.359C90.9107 284.353 90.9133 284.35 90.9133 284.35Z" fill="url(#paint13_linear_683_22)" stroke="white" stroke-width="4"/>
<path id="Vector 12_2" d="M28.2248 354.754L26.9663 354.33L26.0869 355.325C15.4796 367.332 8.71147 373.522 4.74708 375.827C3.77588 376.392 3.08329 376.656 2.62533 376.751C2.4235 376.793 2.30076 376.795 2.23568 376.791C2.21486 376.752 2.18594 376.688 2.15417 376.587C2.05098 376.259 1.97704 375.712 2.00658 374.887C2.12816 371.492 3.86759 365.683 6.53352 358.847C7.74593 355.739 9.126 352.476 10.5817 349.216C10.6054 349.334 10.6316 349.448 10.6602 349.56C11.0048 350.902 11.8754 352.272 13.5942 352.527C14.9701 352.731 16.2746 352.076 17.2219 351.455C19.2411 350.131 21.5786 347.637 23.792 344.929C24.5232 344.034 25.2565 343.097 25.9781 342.141C26.8565 343.184 28.1256 343.329 29.0398 343.244C30.007 343.154 31.0346 342.788 32 342.345C34.7225 341.095 38.2198 338.624 41.345 336.147C40.5032 345.025 38.1615 349.9 35.7516 352.433C33.0405 355.281 30.0538 355.371 28.2248 354.754ZM2.17598 376.781C2.17609 376.781 2.17893 376.782 2.18416 376.784C2.17849 376.783 2.17587 376.782 2.17598 376.781ZM2.26108 376.832C2.26644 376.837 2.26882 376.84 2.26867 376.84C2.26852 376.841 2.26585 376.838 2.26108 376.832Z" fill="url(#paint14_linear_683_22)" stroke="white" stroke-width="4"/>
<path id="Vector 13_2" d="M134.785 354.965L136.043 354.541L136.923 355.536C147.53 367.542 154.298 373.733 158.263 376.038C159.234 376.603 159.926 376.867 160.384 376.962C160.586 377.004 160.709 377.006 160.774 377.002C160.795 376.963 160.824 376.899 160.856 376.798C160.959 376.47 161.033 375.923 161.003 375.098C160.882 371.703 159.142 365.894 156.476 359.058C155.264 355.95 153.884 352.687 152.428 349.427C152.404 349.545 152.378 349.659 152.35 349.771C152.005 351.113 151.134 352.483 149.416 352.738C148.04 352.942 146.735 352.287 145.788 351.666C143.769 350.342 141.431 347.848 139.218 345.14C138.487 344.245 137.753 343.308 137.032 342.352C136.153 343.395 134.884 343.54 133.97 343.455C133.003 343.365 131.975 342.999 131.01 342.556C128.287 341.306 124.79 338.835 121.665 336.358C122.507 345.236 124.848 350.111 127.258 352.644C129.969 355.492 132.956 355.582 134.785 354.965ZM160.834 376.992C160.834 376.992 160.831 376.993 160.826 376.995C160.831 376.994 160.834 376.993 160.834 376.992ZM160.749 377.043C160.743 377.048 160.741 377.051 160.741 377.051C160.741 377.052 160.744 377.049 160.749 377.043Z" fill="url(#paint15_linear_683_22)" stroke="white" stroke-width="4"/>
</g>
</g>
<g id="rocket4" opacity="0.21">
<g id="Group 3_3">
<path id="Ellipse 1_3" d="M1540.76 51.8519C1540.76 76.8699 1531.01 44.5757 1518.98 44.5757C1506.95 44.5757 1497.2 76.8699 1497.2 51.8519C1497.2 26.8338 1506.95 6.55273 1518.98 6.55273C1531.01 6.55273 1540.76 26.8338 1540.76 51.8519Z" fill="#1E7D78"/>
<g id="Ellipse 2_3" filter="url(#filter2_d_683_22)">
<ellipse cx="1518.91" cy="27.9606" rx="8.54198" ry="8.62861" fill="url(#paint16_linear_683_22)" shape-rendering="crispEdges"/>
</g>
<path id="Vector 4_3" d="M1513.04 27.6305C1513.26 25.896 1514.75 22.3611 1518.98 22.0977C1517.85 22.3831 1515.08 23.8892 1513.04 27.6305Z" fill="white"/>
<path id="Vector 5_3" d="M1527.78 49.4992C1522.56 43.9664 1518.43 44.0762 1517.02 44.8227L1513.11 34.3498C1514.94 35.6671 1517.8 37.5531 1521.98 36.0441C1528.3 33.757 1529.31 25.0418 1524.26 21.2422L1537.89 29.278C1538.67 30.9247 1539.84 38.3677 1540.24 42.2538C1540.7 44.5724 1540.73 51.8265 1540.69 55.1638L1534.17 57.2716C1533.86 56.7446 1529.78 51.8704 1527.78 49.4992Z" fill="url(#paint17_linear_683_22)"/>
<path id="Vector 7_3" d="M1531.62 57.3672L1536.82 39.2381C1542.7 42.8529 1544.8 67.254 1543.61 65.7364C1542.65 64.5224 1535.22 59.6511 1531.62 57.3672Z" fill="#014525"/>
<path id="Vector 8_3" d="M1507.34 57.3945L1502.14 39.2654C1496.26 42.8803 1494.16 67.2813 1495.35 65.7637C1496.3 64.5497 1503.74 59.6784 1507.34 57.3945Z" fill="url(#paint18_linear_683_22)"/>
<path id="Vector 9_3" d="M1507.37 57.4018L1504.11 46.0068C1500.48 48.2384 1498.63 63.2691 1499.83 62.4118C1500.61 61.8604 1505.15 58.8118 1507.37 57.4018Z" fill="#4AD882"/>
<path id="Vector 10_3" d="M1531.63 57.4028L1534.82 46.0736C1538.46 48.3053 1540.41 63.3184 1539.21 62.4611C1538.43 61.9098 1533.85 58.8127 1531.63 57.4028Z" fill="#4AD882"/>
<path id="Rectangle 5_3" d="M1510.45 8.6171C1515.31 3.71658 1522.73 3.66394 1527.52 8.63206C1529.52 10.7004 1531.21 12.7454 1531.95 14.1937V14.1937C1532.5 15.2555 1531.6 15.854 1530.67 15.1085C1527.87 12.8519 1522.68 7.54116 1519 7.54116C1515.38 7.54116 1509.97 12.666 1507.23 14.9862C1506.25 15.8128 1505.19 15.3238 1505.81 14.1937V14.1937C1506.55 12.8142 1508.35 10.7365 1510.45 8.6171Z" fill="url(#paint19_linear_683_22)"/>
</g>
<g id="Group 4_3">
<path id="Ellipse 3_3" d="M1524.93 58.2828C1524.93 67.3884 1524.04 75.567 1522.64 81.4127C1521.93 84.3512 1521.12 86.589 1520.3 88.0437C1519.49 89.4561 1518.98 89.6299 1518.91 89.6513C1518.85 89.6299 1518.33 89.4561 1517.53 88.0437C1516.7 86.589 1515.89 84.3512 1515.19 81.4127C1513.78 75.567 1512.89 67.3884 1512.89 58.2828C1512.89 58.0343 1512.89 57.7994 1512.9 57.5775C1513.12 57.5888 1513.36 57.5681 1513.62 57.5032C1514.5 57.2814 1515.04 56.6474 1515.37 56.0984C1515.55 57.2323 1515.75 58.3908 1515.93 59.3511C1516.1 60.1944 1516.29 61.0283 1516.52 61.6799C1516.63 61.9927 1516.79 62.3873 1517.03 62.7403C1517.21 62.9991 1517.83 63.8262 1518.98 63.8262C1520.13 63.8262 1520.75 62.9962 1520.92 62.7455C1521.16 62.3951 1521.33 62.002 1521.44 61.6875C1521.68 61.0329 1521.88 60.1938 1522.05 59.3417C1522.24 58.4464 1522.42 57.3976 1522.6 56.3518C1522.64 56.4061 1522.68 56.4597 1522.72 56.5121C1522.98 56.8488 1523.41 57.2548 1524.05 57.4427C1524.36 57.5367 1524.66 57.5604 1524.93 57.5375C1524.93 57.771 1524.93 58.0191 1524.93 58.2828Z" fill="url(#paint20_linear_683_22)" stroke="white" stroke-width="4"/>
<path id="Vector 12_3" d="M1501.46 71.8769L1501.16 71.7851L1500.95 72.0084C1497.37 75.7398 1495.07 77.6838 1493.7 78.4158C1493.37 78.5961 1493.11 78.6888 1492.93 78.7239C1492.74 78.759 1492.67 78.7305 1492.65 78.7187C1492.62 78.7055 1492.48 78.5945 1492.5 78.0235C1492.54 76.9519 1493.14 75.1326 1494.04 73.0068C1494.52 71.8562 1495.09 70.6382 1495.68 69.435C1495.69 69.6987 1495.71 69.9307 1495.77 70.129C1495.82 70.3273 1495.91 70.5186 1496.06 70.6714C1496.22 70.831 1496.41 70.9238 1496.62 70.9523C1497 71.0046 1497.38 70.8373 1497.7 70.6466C1498.36 70.2496 1499.13 69.4899 1499.88 68.6474C1500.18 68.3081 1500.48 67.9487 1500.78 67.5834C1500.8 67.6337 1500.83 67.6824 1500.87 67.7289C1501.12 68.045 1501.5 68.0885 1501.78 68.0642C1502.07 68.0392 1502.39 67.9356 1502.71 67.8007C1503.71 67.3795 1505.03 66.4947 1506.16 65.6502C1505.9 68.6314 1505.08 70.2648 1504.2 71.1126C1503.24 72.0451 1502.15 72.0923 1501.46 71.8769Z" fill="url(#paint21_linear_683_22)" stroke="white"/>
<path id="Vector 13_3" d="M1537.54 71.9433L1537.84 71.8515L1538.05 72.0748C1541.63 75.8063 1543.93 77.7502 1545.3 78.4822C1545.63 78.6625 1545.89 78.7552 1546.07 78.7904C1546.26 78.8254 1546.33 78.7969 1546.35 78.7851C1546.38 78.7719 1546.52 78.6609 1546.5 78.0899C1546.46 77.0183 1545.86 75.1991 1544.96 73.0732C1544.48 71.9226 1543.91 70.7046 1543.32 69.5014C1543.31 69.7651 1543.29 69.9971 1543.23 70.1954C1543.18 70.3938 1543.09 70.585 1542.94 70.7378C1542.78 70.8975 1542.59 70.9902 1542.38 71.0187C1542 71.071 1541.62 70.9037 1541.3 70.713C1540.64 70.316 1539.87 69.5563 1539.12 68.7138C1538.82 68.3745 1538.52 68.0151 1538.22 67.6498C1538.2 67.7001 1538.17 67.7488 1538.13 67.7953C1537.88 68.1114 1537.5 68.1549 1537.22 68.1306C1536.93 68.1056 1536.61 68.002 1536.29 67.8671C1535.29 67.446 1533.97 66.5611 1532.84 65.7166C1533.1 68.6979 1533.92 70.3312 1534.8 71.179C1535.76 72.1115 1536.85 72.1587 1537.54 71.9433Z" fill="url(#paint22_linear_683_22)" stroke="white"/>
</g>
</g>
<g id="rocket2" opacity="0.53">
<g id="Group 3_4">
<path id="Ellipse 1_4" d="M371.324 1041.88C371.324 1094.9 350.66 1026.46 325.171 1026.46C299.682 1026.46 279.019 1094.9 279.019 1041.88C279.019 988.865 299.682 945.887 325.171 945.887C350.66 945.887 371.324 988.865 371.324 1041.88Z" fill="#1E7D78"/>
<g id="Ellipse 2_4" filter="url(#filter3_d_683_22)">
<ellipse cx="325.032" cy="991.252" rx="18.1017" ry="18.2853" fill="url(#paint23_linear_683_22)" shape-rendering="crispEdges"/>
</g>
<path id="Vector 4_4" d="M312.597 990.553C313.057 986.877 316.217 979.386 325.171 978.828C322.776 979.433 316.908 982.625 312.597 990.553Z" fill="white"/>
<path id="Vector 7_4" d="M351.964 1053.57L362.971 1015.15C375.438 1022.81 379.898 1074.52 377.368 1071.31C375.344 1068.73 359.589 1058.41 351.964 1053.57Z" fill="#014525"/>
<path id="Vector 8_4" d="M300.502 1053.63L289.495 1015.21C277.028 1022.87 272.568 1074.58 275.098 1071.36C277.121 1068.79 292.877 1058.47 300.502 1053.63Z" fill="url(#paint24_linear_683_22)"/>
<path id="Vector 9_4" d="M300.575 1053.65L293.666 1029.5C285.969 1034.23 282.045 1066.08 284.597 1064.26C286.239 1063.09 295.868 1056.63 300.575 1053.65Z" fill="#4AD882"/>
<path id="Vector 10_4" d="M351.978 1053.64L358.749 1029.64C366.445 1034.36 370.586 1066.18 368.034 1064.36C366.392 1063.19 356.685 1056.63 351.978 1053.64Z" fill="#4AD882"/>
<path id="Rectangle 5_4" d="M316.327 941.637C321.536 937.119 328.923 937.07 334.124 941.598C341.635 948.137 350.01 956.905 352.669 962.079V962.079C353.826 964.329 351.919 965.597 349.956 964.017C344.013 959.235 333.012 947.981 325.211 947.981C317.548 947.981 306.087 958.841 300.267 963.758C298.194 965.51 295.96 964.473 297.259 962.079V962.079C299.891 957.222 308.666 948.281 316.327 941.637Z" fill="url(#paint25_linear_683_22)"/>
</g>
<path id="Vector 11_3" d="M297.162 962.493C303.433 954.781 317.091 943.558 324 940V941.721C316.958 945.049 303.717 957.329 298.358 962.493C296.764 963.411 296.897 962.876 297.162 962.493Z" fill="url(#paint26_linear_683_22)"/>
<g id="Group 4_4">
<path id="Ellipse 3_4" d="M340.029 1055.51C340.029 1074.93 338.136 1092.44 335.107 1105.05C333.588 1111.36 331.81 1116.34 329.91 1119.68C327.92 1123.18 326.197 1124.23 325.033 1124.23C323.869 1124.23 322.146 1123.18 320.156 1119.68C318.256 1116.34 316.478 1111.36 314.959 1105.05C311.93 1092.44 310.037 1074.93 310.037 1055.51C310.037 1053.51 310.059 1051.9 310.102 1050.62C310.659 1051.19 311.769 1052.06 313.267 1051.68C314.707 1051.32 315.538 1049.99 316.073 1048.82C316.676 1047.51 317.246 1045.61 317.805 1043.01C317.917 1042.48 318.025 1042.01 318.129 1041.59C318.386 1042.72 318.64 1044.04 318.894 1045.49C319.152 1046.95 319.413 1048.55 319.676 1050.17C320.083 1052.67 320.496 1055.2 320.916 1057.34C321.266 1059.11 321.645 1060.74 322.075 1061.96C322.285 1062.56 322.548 1063.18 322.895 1063.69C323.178 1064.1 323.907 1065.02 325.17 1065.02C326.433 1065.02 327.165 1064.1 327.446 1063.69C327.796 1063.19 328.065 1062.56 328.282 1061.96C328.726 1060.73 329.125 1059.09 329.495 1057.3C329.966 1055.02 330.427 1052.31 330.878 1049.67C331.133 1048.17 331.385 1046.69 331.632 1045.33C331.845 1044.16 332.055 1043.06 332.263 1042.09C332.303 1042.3 332.344 1042.51 332.385 1042.74C332.856 1045.37 333.352 1047.28 333.893 1048.61C334.163 1049.28 334.477 1049.88 334.862 1050.37C335.247 1050.86 335.794 1051.36 336.547 1051.58C338.197 1052.07 339.401 1050.96 339.877 1050.44C339.9 1050.42 339.922 1050.39 339.944 1050.37C339.999 1051.68 340.029 1053.37 340.029 1055.51ZM319.204 1038.43C319.204 1038.44 319.195 1038.45 319.175 1038.47C319.194 1038.44 319.204 1038.43 319.204 1038.43Z" fill="url(#paint27_linear_683_22)" stroke="white" stroke-width="4"/>
<path id="Vector 12_4" d="M286.635 1076.66C287.373 1077.18 288.232 1077.22 288.802 1077.18C289.564 1077.11 290.352 1076.85 291.063 1076.55C292.761 1075.83 294.851 1074.52 296.825 1073.14C296.131 1077.98 294.644 1080.63 293.207 1082.02C291.441 1083.73 289.495 1083.79 288.318 1083.42L287.136 1083.05L286.28 1083.95C278.695 1091.86 273.915 1095.87 271.168 1097.35C270.657 1097.62 270.276 1097.77 270.007 1097.85C269.999 1097.73 269.996 1097.58 270.004 1097.38C270.085 1095.3 271.27 1091.6 273.181 1087.08C273.892 1085.4 274.684 1083.65 275.521 1081.89C275.636 1082.07 275.771 1082.25 275.932 1082.42C276.411 1082.91 277.016 1083.2 277.659 1083.29C278.802 1083.45 279.854 1082.95 280.564 1082.52C282.088 1081.6 283.811 1079.89 285.401 1078.1C285.813 1077.63 286.226 1077.15 286.635 1076.66ZM269.624 1097.92C269.624 1097.92 269.626 1097.92 269.629 1097.92C269.626 1097.92 269.624 1097.92 269.624 1097.92ZM270.063 1098.2C270.07 1098.22 270.073 1098.22 270.072 1098.23C270.072 1098.23 270.068 1098.22 270.063 1098.2Z" fill="url(#paint28_linear_683_22)" stroke="white" stroke-width="4"/>
<path id="Vector 13_4" d="M365.919 1076.8C365.181 1077.32 364.322 1077.36 363.752 1077.31C362.99 1077.25 362.202 1076.99 361.491 1076.69C359.793 1075.97 357.702 1074.66 355.729 1073.28C356.423 1078.11 357.909 1080.77 359.347 1082.16C361.113 1083.87 363.058 1083.92 364.236 1083.56L365.417 1083.19L366.273 1084.08C373.859 1092 378.639 1096.01 381.385 1097.49C381.897 1097.76 382.278 1097.91 382.547 1097.99C382.554 1097.87 382.557 1097.72 382.55 1097.52C382.469 1095.44 381.284 1091.74 379.373 1087.22C378.662 1085.54 377.87 1083.79 377.033 1082.03C376.918 1082.21 376.782 1082.39 376.622 1082.56C376.142 1083.05 375.538 1083.34 374.895 1083.43C373.752 1083.59 372.7 1083.08 371.99 1082.65C370.466 1081.73 368.742 1080.03 367.153 1078.24C366.741 1077.77 366.328 1077.29 365.919 1076.8ZM382.929 1098.06C382.929 1098.06 382.928 1098.06 382.925 1098.06C382.928 1098.06 382.929 1098.06 382.929 1098.06ZM382.491 1098.34C382.484 1098.36 382.481 1098.36 382.481 1098.36C382.482 1098.36 382.486 1098.36 382.491 1098.34Z" fill="url(#paint29_linear_683_22)" stroke="white" stroke-width="4"/>
</g>
</g>
</g>
<defs>
<filter id="filter0_d_683_22" x="1272.3" y="510.232" width="125.919" height="140.328" filterUnits="userSpaceOnUse" color-interpolation-filters="sRGB">
<feFlood flood-opacity="0" result="BackgroundImageFix"/>
<feColorMatrix in="SourceAlpha" type="matrix" values="0 0 0 0 0 0 0 0 0 0 0 0 0 0 0 0 0 0 127 0" result="hardAlpha"/>
<feOffset dy="4"/>
<feGaussianBlur stdDeviation="2"/>
<feComposite in2="hardAlpha" operator="out"/>
<feColorMatrix type="matrix" values="0 0 0 0 0 0 0 0 0 0 0 0 0 0 0 0 0 0 0.25 0"/>
<feBlend mode="normal" in2="BackgroundImageFix" result="effect1_dropShadow_683_22"/>
<feBlend mode="normal" in="SourceGraphic" in2="effect1_dropShadow_683_22" result="shape"/>
</filter>
<filter id="filter1_d_683_22" x="50.4482" y="186.158" width="58.6338" height="63.4883" filterUnits="userSpaceOnUse" color-interpolation-filters="sRGB">
<feFlood flood-opacity="0" result="BackgroundImageFix"/>
<feColorMatrix in="SourceAlpha" type="matrix" values="0 0 0 0 0 0 0 0 0 0 0 0 0 0 0 0 0 0 127 0" result="hardAlpha"/>
<feOffset dy="4"/>
<feGaussianBlur stdDeviation="2"/>
<feComposite in2="hardAlpha" operator="out"/>
<feColorMatrix type="matrix" values="0 0 0 0 0 0 0 0 0 0 0 0 0 0 0 0 0 0 0.25 0"/>
<feBlend mode="normal" in2="BackgroundImageFix" result="effect1_dropShadow_683_22"/>
<feBlend mode="normal" in="SourceGraphic" in2="effect1_dropShadow_683_22" result="shape"/>
</filter>
<filter id="filter2_d_683_22" x="1506.37" y="19.332" width="25.084" height="25.2578" filterUnits="userSpaceOnUse" color-interpolation-filters="sRGB">
<feFlood flood-opacity="0" result="BackgroundImageFix"/>
<feColorMatrix in="SourceAlpha" type="matrix" values="0 0 0 0 0 0 0 0 0 0 0 0 0 0 0 0 0 0 127 0" result="hardAlpha"/>
<feOffset dy="4"/>
<feGaussianBlur stdDeviation="2"/>
<feComposite in2="hardAlpha" operator="out"/>
<feColorMatrix type="matrix" values="0 0 0 0 0 0 0 0 0 0 0 0 0 0 0 0 0 0 0.25 0"/>
<feBlend mode="normal" in2="BackgroundImageFix" result="effect1_dropShadow_683_22"/>
<feBlend mode="normal" in="SourceGraphic" in2="effect1_dropShadow_683_22" result="shape"/>
</filter>
<filter id="filter3_d_683_22" x="302.931" y="972.967" width="44.2031" height="44.5703" filterUnits="userSpaceOnUse" color-interpolation-filters="sRGB">
<feFlood flood-opacity="0" result="BackgroundImageFix"/>
<feColorMatrix in="SourceAlpha" type="matrix" values="0 0 0 0 0 0 0 0 0 0 0 0 0 0 0 0 0 0 127 0" result="hardAlpha"/>
<feOffset dy="4"/>
<feGaussianBlur stdDeviation="2"/>
<feComposite in2="hardAlpha" operator="out"/>
<feColorMatrix type="matrix" values="0 0 0 0 0 0 0 0 0 0 0 0 0 0 0 0 0 0 0.25 0"/>
<feBlend mode="normal" in2="BackgroundImageFix" result="effect1_dropShadow_683_22"/>
<feBlend mode="normal" in="SourceGraphic" in2="effect1_dropShadow_683_22" result="shape"/>
</filter>
<linearGradient id="paint0_linear_683_22" x1="1335.26" y1="510.232" x2="1401.49" y2="682.702" gradientUnits="userSpaceOnUse">
<stop stop-color="white"/>
<stop offset="1" stop-color="white" stop-opacity="0"/>
</linearGradient>
<linearGradient id="paint1_linear_683_22" x1="1359.23" y1="628.678" x2="1353.56" y2="789.755" gradientUnits="userSpaceOnUse">
<stop stop-color="#004541"/>
<stop offset="1" stop-color="#1E7D78" stop-opacity="0"/>
</linearGradient>
<linearGradient id="paint2_linear_683_22" x1="1156.13" y1="685.492" x2="1265.66" y2="806.462" gradientUnits="userSpaceOnUse">
<stop stop-color="white"/>
<stop offset="1" stop-color="#014525"/>
</linearGradient>
<linearGradient id="paint3_linear_683_22" x1="1304.65" y1="361.742" x2="1426.71" y2="456.86" gradientUnits="userSpaceOnUse">
<stop stop-color="white"/>
<stop offset="1" stop-color="#4AD882"/>
</linearGradient>
<linearGradient id="paint4_linear_683_22" x1="1246.59" y1="466.292" x2="1347.32" y2="391.494" gradientUnits="userSpaceOnUse">
<stop stop-color="white"/>
<stop offset="1" stop-color="white" stop-opacity="0"/>
</linearGradient>
<linearGradient id="paint5_linear_683_22" x1="1332" y1="1020.73" x2="1337.44" y2="854.007" gradientUnits="userSpaceOnUse">
<stop stop-color="white"/>
<stop offset="1" stop-color="#52F592"/>
</linearGradient>
<linearGradient id="paint6_linear_683_22" x1="1182.04" y1="973.828" x2="1249.9" y2="870.052" gradientUnits="userSpaceOnUse">
<stop offset="0.37689" stop-color="#53F794"/>
<stop offset="1" stop-color="#C4C4C4" stop-opacity="0"/>
</linearGradient>
<linearGradient id="paint7_linear_683_22" x1="1507.47" y1="973.828" x2="1439.61" y2="870.052" gradientUnits="userSpaceOnUse">
<stop offset="0.37689" stop-color="#53F794"/>
<stop offset="1" stop-color="#C4C4C4" stop-opacity="0"/>
</linearGradient>
<linearGradient id="paint8_linear_683_22" x1="79.765" y1="186.158" x2="101.615" y2="257.744" gradientUnits="userSpaceOnUse">
<stop stop-color="white"/>
<stop offset="1" stop-color="white" stop-opacity="0"/>
</linearGradient>
<linearGradient id="paint9_linear_683_22" x1="90.0582" y1="235.826" x2="87.7377" y2="303.373" gradientUnits="userSpaceOnUse">
<stop stop-color="#004541"/>
<stop offset="1" stop-color="#1E7D78" stop-opacity="0"/>
</linearGradient>
<linearGradient id="paint10_linear_683_22" x1="2.84888" y1="259.649" x2="48.656" y2="311.457" gradientUnits="userSpaceOnUse">
<stop stop-color="white"/>
<stop offset="1" stop-color="#014525"/>
</linearGradient>
<linearGradient id="paint11_linear_683_22" x1="66.6236" y1="123.892" x2="118.091" y2="164.961" gradientUnits="userSpaceOnUse">
<stop stop-color="white"/>
<stop offset="1" stop-color="#4AD882"/>
</linearGradient>
<linearGradient id="paint12_linear_683_22" x1="41.0416" y1="168.508" x2="79.6082" y2="137.559" gradientUnits="userSpaceOnUse">
<stop stop-color="white"/>
<stop offset="1" stop-color="white" stop-opacity="0"/>
</linearGradient>
<linearGradient id="paint13_linear_683_22" x1="79.7654" y1="418.703" x2="79.302" y2="330.545" gradientUnits="userSpaceOnUse">
<stop stop-color="#C4C4C4"/>
<stop offset="1" stop-color="#52F693"/>
</linearGradient>
<linearGradient id="paint14_linear_683_22" x1="3.23527" y1="385.453" x2="27.9334" y2="335.257" gradientUnits="userSpaceOnUse">
<stop offset="0.37689" stop-color="#53F794"/>
<stop offset="1" stop-color="#C4C4C4" stop-opacity="0"/>
</linearGradient>
<linearGradient id="paint15_linear_683_22" x1="159.774" y1="385.664" x2="135.076" y2="335.468" gradientUnits="userSpaceOnUse">
<stop offset="0.37689" stop-color="#53F794"/>
<stop offset="1" stop-color="#C4C4C4" stop-opacity="0"/>
</linearGradient>
<linearGradient id="paint16_linear_683_22" x1="1518.91" y1="19.332" x2="1525.12" y2="37.9607" gradientUnits="userSpaceOnUse">
<stop stop-color="white"/>
<stop offset="1" stop-color="white" stop-opacity="0"/>
</linearGradient>
<linearGradient id="paint17_linear_683_22" x1="1522.43" y1="32.0444" x2="1539.09" y2="55.9288" gradientUnits="userSpaceOnUse">
<stop stop-color="#004541"/>
<stop offset="1" stop-color="#1E7D78" stop-opacity="0"/>
</linearGradient>
<linearGradient id="paint18_linear_683_22" x1="1492.96" y1="42.1876" x2="1507.02" y2="59.4379" gradientUnits="userSpaceOnUse">
<stop stop-color="white"/>
<stop offset="1" stop-color="#014525"/>
</linearGradient>
<linearGradient id="paint19_linear_683_22" x1="1514.48" y1="-0.0336466" x2="1530.73" y2="14.0312" gradientUnits="userSpaceOnUse">
<stop stop-color="white"/>
<stop offset="1" stop-color="#4AD882"/>
</linearGradient>
<linearGradient id="paint20_linear_683_22" x1="1518.91" y1="91.6543" x2="1518.78" y2="64.2367" gradientUnits="userSpaceOnUse">
<stop stop-color="#C4C4C4"/>
<stop offset="1" stop-color="#52F693"/>
</linearGradient>
<linearGradient id="paint21_linear_683_22" x1="1493.09" y1="81.3123" x2="1500.39" y2="65.2298" gradientUnits="userSpaceOnUse">
<stop offset="0.37689" stop-color="#52F693"/>
<stop offset="1" stop-color="#C4C4C4" stop-opacity="0"/>
</linearGradient>
<linearGradient id="paint22_linear_683_22" x1="1545.91" y1="81.3787" x2="1538.61" y2="65.2962" gradientUnits="userSpaceOnUse">
<stop offset="0.37689" stop-color="#54F895"/>
<stop offset="1" stop-color="#C4C4C4" stop-opacity="0"/>
</linearGradient>
<linearGradient id="paint23_linear_683_22" x1="325.032" y1="972.967" x2="343.316" y2="1022.88" gradientUnits="userSpaceOnUse">
<stop stop-color="white"/>
<stop offset="1" stop-color="white" stop-opacity="0"/>
</linearGradient>
<linearGradient id="paint24_linear_683_22" x1="270.037" y1="1021.4" x2="299.83" y2="1057.96" gradientUnits="userSpaceOnUse">
<stop stop-color="white"/>
<stop offset="1" stop-color="#014525"/>
</linearGradient>
<linearGradient id="paint25_linear_683_22" x1="315.637" y1="931.929" x2="350.066" y2="961.734" gradientUnits="userSpaceOnUse">
<stop stop-color="white"/>
<stop offset="1" stop-color="#4AD882"/>
</linearGradient>
<linearGradient id="paint26_linear_683_22" x1="297.03" y1="960.886" x2="320.897" y2="938.402" gradientUnits="userSpaceOnUse">
<stop stop-color="white"/>
<stop offset="1" stop-color="white" stop-opacity="0"/>
</linearGradient>
<linearGradient id="paint27_linear_683_22" x1="325.033" y1="1126.23" x2="324.751" y2="1068.12" gradientUnits="userSpaceOnUse">
<stop stop-color="#C4C4C4"/>
<stop offset="1" stop-color="#52F693"/>
</linearGradient>
<linearGradient id="paint28_linear_683_22" x1="270.313" y1="1104.31" x2="285.77" y2="1070.23" gradientUnits="userSpaceOnUse">
<stop offset="0.37689" stop-color="#52F693"/>
<stop offset="1" stop-color="#C4C4C4" stop-opacity="0"/>
</linearGradient>
<linearGradient id="paint29_linear_683_22" x1="382.24" y1="1104.45" x2="366.784" y2="1070.37" gradientUnits="userSpaceOnUse">
<stop offset="0.37689" stop-color="#52F693"/>
<stop offset="1" stop-color="#C4C4C4" stop-opacity="0"/>
</linearGradient>
</defs>
</svg>
