<svg width="285" height="222" viewBox="0 0 285 222" fill="none" xmlns="http://www.w3.org/2000/svg">
<rect x="63" width="159" height="24" rx="10" fill="#18BC59"/>
<path d="M124.5 161V212C124.5 213.381 123.381 214.5 122 214.5H83.5V161C83.5 149.678 92.6782 140.5 104 140.5C115.322 140.5 124.5 149.678 124.5 161Z" fill="#18BC59" stroke="#18BC59" stroke-width="15"/>
<mask id="path-3-inside-1_720_2" fill="white">
<path d="M34 161C34 145.536 46.536 133 62 133V133C77.464 133 90 145.536 90 161V222H44C38.4772 222 34 217.523 34 212V161Z"/>
</mask>
<path d="M34 161C34 145.536 46.536 133 62 133V133C77.464 133 90 145.536 90 161V222H44C38.4772 222 34 217.523 34 212V161Z" fill="#18BC59" stroke="#18BC59" stroke-width="30" mask="url(#path-3-inside-1_720_2)"/>
<path d="M222.5 140.5L241 140.5C242.381 140.5 243.5 141.619 243.5 143L243.5 212C243.5 213.381 242.381 214.5 241 214.5L222.5 214.5C202.065 214.5 185.5 197.935 185.5 177.5C185.5 157.065 202.065 140.5 222.5 140.5Z" fill="#18BC59" stroke="#18BC59" stroke-width="15"/>
<path d="M0 69C0 51.3269 14.3269 37 32 37H253C270.673 37 285 51.3269 285 69V106.816H0V69Z" fill="#18BC59"/>
<path d="M0 106.816H71L68.4655 113.406C66.9801 117.268 63.2697 119.816 59.132 119.816H11.868C7.73027 119.816 4.01989 117.268 2.53454 113.406L0 106.816Z" fill="#18BC59"/>
<path d="M71 106.816H142L139.465 113.406C137.98 117.268 134.27 119.816 130.132 119.816H82.868C78.7303 119.816 75.0199 117.268 73.5345 113.406L71 106.816Z" fill="#18BC59"/>
<path d="M142 106.816H214L210.681 114.007C209.047 117.548 205.502 119.816 201.602 119.816H153.868C149.73 119.816 146.02 117.268 144.535 113.406L142 106.816Z" fill="#18BC59"/>
<path d="M214 106.816H285L282.465 113.406C280.98 117.268 277.27 119.816 273.132 119.816H225.868C221.73 119.816 218.02 117.268 216.535 113.406L214 106.816Z" fill="#18BC59"/>
</svg>
